<?xml version="1.0" encoding="UTF-8"?>
<!-- Generator: visioncortex VTracer 0.6.12 -->
<svg version="1.1" xmlns="http://www.w3.org/2000/svg" width="3520" height="1216">
<path d="M0 0 C0.82 0 1.65 0 2.5 0 C2.98 -0 2.98 -0 5.38 -0.01 C5.91 -0.01 5.91 -0.01 8.57 0 C9.68 -0 10.79 -0 11.94 -0.01 C15.69 -0.01 19.44 -0 23.19 0.01 C25.87 0.01 28.55 0 31.22 0 C37.76 -0 44.29 0 50.83 0.01 C58.43 0.02 66.03 0.02 73.64 0.02 C87.2 0.02 100.76 0.03 114.32 0.04 C127.49 0.06 140.66 0.06 153.83 0.06 C154.24 0.06 154.24 0.06 156.29 0.06 C157.1 0.06 157.91 0.06 158.75 0.06 C173.72 0.06 188.7 0.07 203.67 0.08 C208.98 0.08 214.29 0.08 219.59 0.08 C226.05 0.08 232.51 0.09 238.97 0.1 C242.27 0.1 245.57 0.1 248.87 0.1 C252.44 0.1 256.01 0.11 259.58 0.12 C260.63 0.11 261.68 0.11 262.77 0.11 C263.24 0.11 263.24 0.11 265.64 0.12 C266.47 0.12 267.29 0.12 268.14 0.12 C270.01 0.25 270.01 0.25 271.01 1.25 C271.12 3.01 271.16 4.78 271.17 6.54 C271.18 7.7 271.19 8.87 271.2 10.06 C271.2 11.36 271.21 12.65 271.21 13.99 C271.22 15.37 271.23 16.76 271.24 18.14 C271.27 22 271.29 25.85 271.31 29.71 C271.33 33.05 271.35 36.4 271.37 39.75 C271.43 50.08 271.48 60.4 271.53 70.73 C271.56 75.8 271.58 80.86 271.61 85.93 C272.06 171.59 272.13 257.25 272.14 435.47 C272.13 458.74 272.13 482.01 272.14 505.28 C272.14 532.74 272.15 560.21 272.14 587.68 C272.14 590.59 272.14 593.51 272.14 596.43 C272.14 597.14 272.14 597.86 272.14 598.6 C272.14 609.35 272.14 620.1 272.14 630.85 C272.15 642.95 272.15 655.06 272.14 667.16 C272.14 673.31 272.14 679.47 272.14 685.62 C272.14 691.24 272.14 696.87 272.14 702.49 C272.14 704.52 272.14 706.55 272.14 708.58 C272.17 732.61 272.17 732.61 271.01 738.25 C270.35 738.58 269.69 738.91 269.01 739.25 C266.92 738.48 266.92 738.48 264.34 737.22 C263.4 736.76 262.45 736.31 261.47 735.83 C260.45 735.33 259.43 734.83 258.38 734.31 C257.33 733.8 256.28 733.29 255.2 732.76 C248.96 729.73 242.75 726.65 236.56 723.52 C230.92 720.67 225.22 717.94 219.52 715.21 C209.73 710.51 199.94 705.81 190.32 700.75 C189.61 700.38 188.9 700 188.17 699.62 C183.59 697.18 179.14 694.56 174.7 691.88 C171.84 690.15 168.97 688.44 166.09 686.73 C155.14 680.22 144.26 673.69 133.77 666.45 C131.89 665.17 130 663.91 128.11 662.65 C115.46 654.18 103.62 644.77 92.41 634.44 C90.41 632.62 88.37 630.84 86.32 629.07 C74.63 618.87 63.35 607.66 54.01 595.25 C53.28 594.31 52.55 593.38 51.8 592.41 C39.14 575.96 28.95 557.95 20.01 539.25 C19.48 538.17 18.96 537.08 18.42 535.97 C14.47 527.35 11.89 518.46 9.37 509.34 C9.23 508.83 9.23 508.83 8.52 506.3 C8.28 505.4 8.04 504.5 7.78 503.57 C7.01 501.25 7.01 501.25 5.01 498.25 C-5.68 460.6 -4.43 420.95 -3.99 382.25 C4.82 382.07 13.64 381.91 22.45 381.75 C26.54 381.68 30.64 381.61 34.73 381.53 C38.68 381.45 42.63 381.38 46.58 381.31 C48.08 381.29 49.59 381.26 51.1 381.22 C53.21 381.18 55.32 381.14 57.43 381.11 C58.63 381.09 59.83 381.07 61.07 381.05 C64.01 381.25 64.01 381.25 67.01 383.25 C67.39 385.24 67.39 385.24 67.41 387.72 C67.42 388.65 67.44 389.58 67.45 390.54 C67.45 391.04 67.45 391.04 67.45 393.61 C67.46 394.14 67.46 394.14 67.49 396.81 C67.53 400.2 67.55 403.6 67.57 407 C67.88 449.29 67.88 449.29 73.01 469.25 C73.31 470.46 73.61 471.66 73.91 472.91 C80.36 498.05 90.87 523.62 107.01 544.25 C107.68 545.11 108.35 545.97 109.05 546.86 C113.94 552.97 119.13 558.75 124.45 564.47 C126.53 566.73 128.53 569.03 130.51 571.37 C145.05 588.06 164.83 600.67 183.51 612.25 C184.24 612.71 184.97 613.16 185.72 613.63 C186.42 614.06 187.13 614.49 187.85 614.94 C188.46 615.31 189.07 615.69 189.7 616.07 C193 617.76 196.54 618.95 200.01 620.25 C199.68 439.08 199.35 257.91 199.01 71.25 C196.46 69.98 194.69 70.13 191.83 70.13 C191.28 70.13 191.28 70.13 188.51 70.13 C187.3 70.13 186.09 70.13 184.85 70.14 C183.58 70.14 182.31 70.14 181 70.14 C177.52 70.14 174.04 70.14 170.56 70.15 C166.92 70.15 163.28 70.15 159.64 70.16 C152.75 70.16 145.86 70.17 138.96 70.18 C131.12 70.19 123.27 70.19 115.43 70.2 C99.29 70.21 83.15 70.23 67.01 70.25 C67.01 71.54 67.02 72.83 67.02 74.17 C67.04 78.95 67.05 83.73 67.06 88.51 C67.07 90.58 67.08 92.66 67.08 94.73 C67.1 97.7 67.1 100.67 67.11 103.65 C67.11 104.58 67.12 105.51 67.12 106.47 C67.12 107.33 67.12 108.19 67.12 109.08 C67.12 109.83 67.13 110.59 67.13 111.38 C67.01 113.25 67.01 113.25 66.01 115.25 C57.03 115.27 48.05 115.29 39.07 115.3 C34.9 115.31 30.73 115.31 26.56 115.32 C22.54 115.34 18.52 115.34 14.5 115.34 C12.97 115.35 11.43 115.35 9.89 115.36 C7.75 115.36 5.6 115.36 3.46 115.36 C2.23 115.37 1.01 115.37 -0.25 115.37 C-2.99 115.25 -2.99 115.25 -3.99 114.25 C-4.09 112.8 -4.12 111.34 -4.13 109.89 C-4.13 108.95 -4.13 108.01 -4.14 107.04 C-4.14 106 -4.14 104.96 -4.14 103.89 C-4.14 102.8 -4.14 101.71 -4.15 100.59 C-4.16 96.96 -4.16 93.34 -4.16 89.72 C-4.16 87.22 -4.17 84.71 -4.17 82.21 C-4.18 76.95 -4.18 71.69 -4.18 66.43 C-4.18 60.35 -4.19 54.26 -4.2 48.18 C-4.22 42.33 -4.22 36.49 -4.22 30.64 C-4.22 28.15 -4.23 25.66 -4.23 23.17 C-4.24 19.7 -4.24 16.22 -4.23 12.74 C-4.24 11.7 -4.25 10.66 -4.25 9.59 C-4.25 8.65 -4.24 7.71 -4.24 6.74 C-4.24 5.91 -4.24 5.09 -4.24 4.24 C-3.88 1.38 -2.86 0.36 0 0 Z " fill="#f0ede8" transform="translate(345.99131828546524,260.7504523396492)"/>
<path d="M0 0 C23.08 -0.05 46.16 -0.08 69.24 -0.1 C79.96 -0.11 90.67 -0.13 101.39 -0.15 C110.74 -0.17 120.08 -0.18 129.43 -0.19 C134.38 -0.19 139.32 -0.2 144.26 -0.21 C148.93 -0.23 153.59 -0.23 158.26 -0.23 C159.96 -0.23 161.66 -0.23 163.36 -0.24 C194.42 -0.37 224.25 6.85 247 29 C269.43 51.69 275.12 78.78 275.16 109.71 C275.17 111.02 275.18 112.33 275.18 113.67 C275.2 117.26 275.21 120.84 275.22 124.42 C275.23 128.31 275.24 132.19 275.26 136.07 C275.28 143.66 275.31 151.26 275.33 158.85 C275.35 165.03 275.37 171.22 275.39 177.4 C275.39 178.29 275.39 179.17 275.39 180.08 C275.4 181.87 275.41 183.67 275.41 185.46 C275.47 202.28 275.52 219.09 275.57 235.91 C275.61 250.27 275.65 264.64 275.7 279.01 C275.76 295.74 275.82 312.48 275.87 329.21 C275.87 331.01 275.88 332.8 275.88 334.59 C275.88 335.47 275.89 336.35 275.89 337.26 C275.91 343.42 275.93 349.57 275.95 355.73 C275.98 363.26 276 370.8 276.02 378.33 C276.03 382.16 276.04 385.99 276.06 389.82 C276.11 404.45 276.06 419.08 275.58 433.71 C275.54 434.85 275.5 436 275.46 437.18 C274.44 464.44 269.62 491.13 261 517 C260.73 517.8 260.47 518.61 260.2 519.43 C256.44 530.63 251.72 540.9 245.98 551.2 C244.67 553.6 243.49 556.04 242.31 558.5 C239.93 563.3 237.05 567.61 234 572 C233.15 573.26 232.3 574.51 231.45 575.77 C224.09 586.64 216.3 596.72 207.39 606.39 C205.27 608.71 203.19 611.06 201.12 613.44 C196.34 618.92 196.34 618.92 194 621 C193.34 621 192.68 621 192 621 C192 621.66 192 622.32 192 623 C191.34 623 190.68 623 190 623 C190 623.66 190 624.32 190 625 C188.74 626.3 188.74 626.3 186.88 627.88 C186.14 628.5 185.4 629.12 184.64 629.77 C183.77 630.5 182.9 631.24 182 632 C180.98 632.89 179.96 633.78 178.95 634.67 C165.87 646.11 152.15 656.45 137.61 665.94 C135.36 667.42 133.18 668.99 131 670.56 C125.27 674.6 119.26 678.13 113.22 681.68 C110.87 683.08 108.54 684.49 106.2 685.9 C84.37 699.06 61.97 710.9 38.74 721.39 C33.86 723.59 29.04 725.9 24.25 728.31 C23.63 728.62 23.01 728.93 22.37 729.25 C19.25 730.83 16.15 732.45 13.06 734.11 C12.74 734.28 12.74 734.28 11.12 735.14 C9.37 736.06 7.63 737 5.89 737.95 C3 739 3 739 0.82 738.07 C0.22 737.71 -0.38 737.36 -1 737 C-1.02 666.96 -1.03 596.91 -1.04 526.87 C-1.04 525.83 -1.04 524.8 -1.04 523.73 C-1.05 501.22 -1.05 478.71 -1.05 456.2 C-1.05 445.16 -1.05 434.12 -1.05 423.08 C-1.05 422.53 -1.05 422.53 -1.06 419.76 C-1.06 384.12 -1.07 348.49 -1.08 312.85 C-1.09 276.25 -1.09 239.64 -1.09 203.04 C-1.09 197.87 -1.09 192.71 -1.09 187.54 C-1.09 187.04 -1.09 187.04 -1.1 184.46 C-1.1 168.07 -1.1 151.67 -1.11 135.28 C-1.11 118.82 -1.11 102.35 -1.11 85.89 C-1.11 76.1 -1.11 66.31 -1.12 56.51 C-1.12 49.98 -1.12 43.45 -1.12 36.92 C-1.12 33.19 -1.12 29.46 -1.12 25.74 C-1.13 21.73 -1.13 17.73 -1.12 13.72 C-1.13 12.55 -1.13 11.38 -1.13 10.17 C-1.13 9.11 -1.13 8.05 -1.12 6.96 C-1.12 6.04 -1.12 5.13 -1.12 4.18 C-1 2 -1 2 0 0 Z M71 71 C70.7 74 70.6 76.8 70.63 79.8 C70.62 80.73 70.62 81.65 70.61 82.61 C70.6 85.75 70.61 88.89 70.63 92.03 C70.62 94.29 70.62 96.55 70.61 98.81 C70.6 105.05 70.61 111.29 70.62 117.53 C70.63 123.56 70.62 129.59 70.62 135.62 C70.61 148.72 70.61 161.82 70.62 174.92 C70.63 186.38 70.64 197.84 70.64 209.31 C70.64 210.07 70.64 210.83 70.64 211.61 C70.64 214.69 70.64 217.77 70.64 220.85 C70.63 249.79 70.64 278.72 70.67 307.65 C70.68 333.38 70.69 359.1 70.68 384.83 C70.68 386.48 70.68 388.13 70.68 389.78 C70.68 390.6 70.68 391.42 70.68 392.26 C70.68 396.37 70.68 400.48 70.68 404.59 C70.68 405.4 70.68 406.21 70.68 407.05 C70.68 428.52 70.68 449.99 70.69 471.46 C70.69 473.77 70.69 476.08 70.69 478.39 C70.69 479.92 70.69 481.46 70.69 482.99 C70.7 493.69 70.7 504.38 70.7 515.08 C70.69 528.87 70.7 542.65 70.71 556.43 C70.72 563.08 70.73 569.74 70.72 576.39 C70.72 582.47 70.72 588.55 70.73 594.62 C70.74 596.83 70.74 599.04 70.73 601.25 C70.73 604.23 70.74 607.22 70.75 610.2 C70.74 611.07 70.74 611.95 70.73 612.85 C70.77 618.77 70.77 618.77 73 621 C80.46 617.47 87.58 613.91 94.25 609 C96.38 607.45 98.52 605.96 100.71 604.5 C113.2 596.15 124.29 586.69 135.29 576.5 C137.57 574.39 139.89 572.34 142.25 570.31 C143.5 569.21 144.75 568.11 146 567 C146.6 566.47 147.19 565.94 147.81 565.39 C154.58 559.01 159.97 551.44 165.5 544 C166.78 542.3 168.07 540.6 169.37 538.91 C174.36 532.3 178.22 525.36 182 518 C182.63 516.89 183.25 515.78 183.9 514.64 C198.19 488.77 203.66 458.3 204.55 429.09 C204.56 428.75 204.56 428.75 204.62 427.04 C205.19 407.93 205.15 388.82 205.13 369.71 C205.13 365.48 205.13 361.25 205.14 357.03 C205.14 343.43 205.14 329.84 205.13 316.25 C205.12 311.58 205.12 306.91 205.12 302.24 C205.08 191.3 205.08 191.3 204.71 142.07 C204.69 138.77 204.67 135.46 204.65 132.15 C204.63 127.12 204.59 122.09 204.54 117.06 C204.52 115.31 204.51 113.55 204.5 111.79 C204.44 97.21 202.87 86.87 192.25 76.25 C178.75 66.91 162.15 68.84 146.47 68.83 C144.38 68.83 142.3 68.83 140.21 68.82 C135.87 68.82 131.52 68.81 127.17 68.81 C121.6 68.81 116.02 68.8 110.44 68.78 C106.15 68.77 101.86 68.77 97.56 68.77 C95.5 68.77 93.45 68.77 91.39 68.76 C88.52 68.75 85.66 68.75 82.79 68.76 C81.94 68.75 81.09 68.75 80.22 68.74 C76.3 68.76 74.34 68.78 71 71 Z " fill="#f0ede8" transform="translate(648,261)"/>
<path d="M0 0 C5.16 3.08 9.35 6.93 13.69 11.06 C14.35 11.69 15.01 12.31 15.7 12.96 C17.47 14.63 19.24 16.31 21 18 C21.56 18.52 22.13 19.04 22.71 19.58 C24 21 24 21 24 23 C24.57 23.23 25.14 23.46 25.73 23.7 C28.58 25.33 30.22 27.27 32.38 29.75 C38.97 37.18 46.05 44.11 53.12 51.08 C67.42 65.25 67.42 65.25 69 70 C70.31 70.7 71.65 71.37 73 72 C74.68 73.45 74.68 73.45 76.31 75.12 C76.84 75.66 77.38 76.2 77.93 76.76 C79.1 78.03 80.26 79.31 81.39 80.62 C86.76 86.91 92.61 92.69 98.5 98.5 C100.51 100.49 102.52 102.48 104.53 104.47 C105.41 105.34 106.3 106.21 107.21 107.11 C109.35 109.28 111.36 111.55 113.36 113.86 C116.95 118.01 120.77 121.87 124.68 125.71 C126.12 127.13 127.55 128.56 128.99 129.98 C131.23 132.19 133.47 134.41 135.71 136.62 C137.89 138.77 140.07 140.93 142.25 143.09 C142.59 143.42 142.59 143.42 144.3 145.1 C144.61 145.41 144.61 145.41 146.17 146.96 C146.72 147.5 147.27 148.04 147.83 148.6 C149 150 149 150 149 152 C150.32 152.66 151.64 153.32 153 154 C153 154.66 153 155.32 153 156 C153.66 156 154.32 156 155 156 C156.36 157.64 157.69 159.32 159 161 C160.65 162.68 162.32 164.35 164 166 C175.83 177.68 175.83 177.68 181.07 183.86 C184.21 187.34 187.56 190.6 190.91 193.88 C193.24 196.16 195.18 198.28 197 201 C197.66 201 198.32 201 199 201 C199.64 154.61 197.82 108.15 196.12 61.8 C196.04 59.67 195.96 57.54 195.89 55.41 C194.94 28.17 194.94 28.17 191.12 21.94 C184.24 17.67 176.03 16.74 168.06 16.31 C166 16 166 16 163 14 C163.75 9.25 163.75 9.25 166 7 C168.88 6.8 171.67 6.73 174.55 6.74 C175.43 6.74 176.32 6.73 177.23 6.73 C180.16 6.72 183.1 6.73 186.03 6.73 C188.06 6.73 190.1 6.73 192.13 6.73 C196.39 6.73 200.66 6.73 204.92 6.74 C210.4 6.75 215.87 6.74 221.34 6.73 C225.54 6.72 229.74 6.73 233.94 6.73 C235.96 6.73 237.98 6.73 240 6.73 C242.82 6.72 245.63 6.73 248.45 6.74 C249.29 6.74 250.13 6.73 251 6.73 C256.77 6.77 256.77 6.77 259 9 C259.31 11.5 259.31 11.5 259 14 C254.78 16.81 250.26 17.06 245.34 17.77 C240.96 18.46 237.6 19.23 234 22 C230.37 29.81 230.78 39.29 230.5 47.75 C230.46 48.89 230.42 50.03 230.38 51.2 C230.25 54.95 230.12 58.69 230 62.44 C229.98 63.09 229.98 63.09 229.87 66.38 C228.81 98.17 228.13 129.95 227.79 161.75 C227.11 224.28 227.11 224.28 226.24 249.59 C226.16 251.84 226.09 254.09 226.02 256.34 C225.93 259.39 225.82 262.45 225.7 265.5 C225.68 265.94 225.68 265.94 225.62 268.14 C225.38 273.43 224.38 277.26 222 282 C216.62 282.83 213.73 281.02 209.52 278 C196.79 267.91 185.66 255.78 174.28 244.24 C171.91 241.92 169.47 239.71 167 237.5 C158.1 229.46 149.75 220.83 141.3 212.32 C137.41 208.4 133.49 204.49 129.57 200.6 C127.29 198.33 125.01 196.06 122.73 193.79 C121.54 192.6 120.34 191.4 119.14 190.21 C117.39 188.48 115.65 186.74 113.9 185 C113.37 184.47 112.84 183.95 112.29 183.4 C109.3 180.42 106.6 177.33 104 174 C102.89 172.96 101.74 171.96 100.56 171 C97.53 168.46 94.67 165.92 92 163 C92 162.34 92 161.68 92 161 C91.44 160.79 90.89 160.59 90.31 160.38 C88.05 159.03 87 157.95 85.38 155.94 C83 153 83 153 81 152 C81 151.34 81 150.68 81 150 C80.73 149.9 80.73 149.9 79.37 149.39 C75.99 147.41 73.65 144.58 71.06 141.69 C66.62 136.81 62.09 132.05 57.41 127.41 C56.93 126.93 56.45 126.46 55.96 125.97 C53.57 123.6 51.17 121.24 48.76 118.88 C47.88 118.02 47 117.15 46.1 116.26 C45.31 115.49 44.52 114.71 43.71 113.92 C42 112 42 112 42 110 C41.34 110 40.68 110 40 110 C38.8 108.78 38.8 108.78 37.31 106.94 C33.48 102.43 29.37 98.24 25.19 94.06 C24.52 93.39 23.85 92.71 23.16 92.02 C22.52 91.38 21.88 90.75 21.23 90.1 C20.94 89.81 20.94 89.81 19.49 88.36 C18 87 18 87 16 86 C16.07 86.74 16.13 87.49 16.2 88.25 C16.91 96.69 17.23 105.1 17.41 113.56 C17.47 115.96 17.52 118.36 17.58 120.75 C17.74 127.56 17.9 134.37 18.05 141.18 C18.48 160.52 19.07 179.83 20.3 199.15 C20.97 209.79 21.35 220.42 21.58 231.07 C22.16 256.53 22.16 256.53 28 263 C33.49 266.86 38.01 267.7 44.62 268.12 C54.66 268.85 54.66 268.85 59 271 C59.12 273.38 59.12 273.38 59 276 C55.19 279.81 48.73 279.04 43.56 279.1 C41.99 279.1 40.42 279.09 38.86 279.07 C37.99 279.06 37.13 279.06 36.24 279.05 C33.41 279.04 30.58 279.01 27.76 278.98 C25.78 278.97 23.81 278.95 21.83 278.93 C17.71 278.9 13.58 278.86 9.46 278.81 C4.17 278.76 -1.12 278.72 -6.41 278.69 C-10.48 278.66 -14.55 278.62 -18.62 278.58 C-20.57 278.56 -22.52 278.54 -24.48 278.53 C-27.19 278.52 -29.91 278.49 -32.63 278.45 C-33.04 278.45 -33.04 278.45 -35.08 278.45 C-40.49 278.35 -40.49 278.35 -43.02 276.63 C-44 275 -44 275 -44 272.44 C-43 270 -43 270 -40.9 268.87 C-37.38 267.82 -34.23 267.76 -30.56 267.69 C-22.41 267.33 -22.41 267.33 -19.19 264.81 C-14.03 258.18 -14.37 250.17 -13.94 242.12 C-13.9 241.4 -13.86 240.67 -13.81 239.92 C-12.9 223.23 -12.64 206.52 -12.38 189.81 C-12.35 188.55 -12.33 187.28 -12.31 185.98 C-12.04 168.71 -11.98 151.43 -11.99 134.16 C-12.01 111.87 -11.98 89.59 -11.82 67.3 C-11.78 61.89 -11.74 56.48 -11.73 51.06 C-11.71 45.67 -11.68 40.28 -11.63 34.89 C-11.62 32.87 -11.61 30.86 -11.61 28.85 C-11.59 7.75 -11.59 7.75 -7 0 C-4.21 -1.39 -2.98 -0.88 0 0 Z " fill="#f0ede8" transform="translate(1944,451)"/>
<path d="M0 0 C0.95 0.16 1.91 0.32 2.89 0.48 C12.58 2.22 12.58 2.22 16.38 5.06 C17.64 10.8 17.46 16.5 17.32 22.34 C17.31 23.32 17.29 24.29 17.27 25.29 C17.23 27.34 17.18 29.38 17.13 31.43 C17.06 34.55 17.01 37.67 16.96 40.79 C16.91 42.79 16.87 44.79 16.82 46.78 C16.81 47.71 16.79 48.63 16.78 49.59 C16.64 54.77 16.05 59.15 14.38 64.06 C12.62 64.81 12.62 64.81 10.38 65.06 C5.97 61.8 5.16 57.86 3.88 52.81 C0.45 40.45 -4.6 29.81 -16.29 23.12 C-30.61 16.64 -47.59 14.55 -62.81 18.96 C-73.16 23.02 -81.91 29.68 -86.5 39.88 C-90.23 49.82 -90.39 58.03 -86.62 68.06 C-76.53 88.25 -55.22 99.21 -36.34 109.93 C-30.91 113.02 -25.91 116.22 -21.07 120.16 C-17.44 122.98 -13.63 125.52 -9.79 128.04 C-8.37 129 -6.99 130.03 -5.62 131.06 C-5.62 131.72 -5.62 132.38 -5.62 133.06 C-5.04 133.32 -4.46 133.59 -3.86 133.86 C9.45 141.06 18.71 159.76 23.22 173.67 C25.53 181.83 25.83 189.62 25.75 198.06 C25.76 199.34 25.77 200.61 25.79 201.93 C25.73 220.38 19.44 236.94 7 250.69 C6.13 251.47 5.27 252.25 4.38 253.06 C3.75 253.67 3.13 254.27 2.49 254.89 C-20.24 276.27 -49.96 278.68 -79.63 278.16 C-85.73 277.97 -91.62 277.18 -97.62 276.06 C-99.2 275.8 -100.77 275.54 -102.34 275.29 C-111.07 273.77 -119.44 271.73 -127.75 268.62 C-128.51 268.35 -129.28 268.07 -130.07 267.79 C-135.26 265.72 -135.26 265.72 -136.82 262.91 C-137.82 259.38 -137.87 256.29 -137.86 252.62 C-137.86 251.9 -137.86 251.19 -137.86 250.45 C-137.85 248.13 -137.83 245.82 -137.81 243.5 C-137.8 241.91 -137.8 240.32 -137.79 238.73 C-137.73 230.25 -137.63 221.78 -137.25 213.31 C-137.23 212.93 -137.23 212.93 -137.16 211.01 C-136.54 199.98 -136.54 199.98 -132.62 196.06 C-130.69 196.19 -130.69 196.19 -128.62 197.06 C-126.19 199.83 -125.14 202.11 -124.38 205.7 C-124.18 206.58 -123.98 207.47 -123.78 208.39 C-123.58 209.31 -123.39 210.24 -123.19 211.19 C-120.18 225.33 -115.88 237.01 -103.81 245.88 C-87.42 256.5 -69.46 258.27 -50.5 254.81 C-44.98 253.57 -40.5 251.91 -35.62 249.06 C-34.3 248.39 -32.96 247.72 -31.62 247.06 C-31.62 246.4 -31.62 245.74 -31.62 245.06 C-30.97 245.06 -30.3 245.06 -29.62 245.06 C-29.62 244.4 -29.62 243.74 -29.62 243.06 C-28.97 243.06 -28.3 243.06 -27.62 243.06 C-27.35 242.34 -27.07 241.62 -26.79 240.88 C-25.32 237.32 -23.54 233.97 -21.75 230.56 C-18.07 222.37 -18.35 210.58 -20.34 201.94 C-21.28 199.51 -22.33 197.32 -23.62 195.06 C-24.03 194.34 -24.44 193.61 -24.86 192.86 C-26.71 189.78 -28.68 186.99 -30.94 184.19 C-32.62 182.06 -32.62 182.06 -32.62 180.06 C-32.9 179.94 -32.9 179.94 -34.26 179.34 C-37.26 177.72 -39.76 175.69 -42.44 173.56 C-48.91 168.5 -55.65 163.97 -62.52 159.46 C-73.78 152 -85.03 144.45 -95.62 136.06 C-96.18 135.63 -96.73 135.19 -97.31 134.74 C-115.24 120.52 -127.04 104.06 -130.2 81.02 C-132.34 61.23 -129.21 42.15 -117.07 26 C-101.97 7.84 -77.46 -0.87 -54.59 -3.14 C-36.19 -4.7 -18.18 -3.04 0 0 Z " fill="#f0ede8" transform="translate(2949.625,455.9375)"/>
<path d="M0 0 C4.82 0.52 9.63 1.07 14.43 1.72 C14.92 1.78 14.92 1.78 17.41 2.11 C19.36 2.36 21.32 2.62 23.27 2.89 C43.77 5.5 64.69 5.15 85.33 5.13 C87.66 5.13 90 5.13 92.33 5.14 C97.18 5.14 102.03 5.14 106.88 5.13 C113.01 5.12 119.13 5.13 125.25 5.13 C188.42 5.18 188.42 5.18 218.71 2.4 C223.49 1.99 228.2 1.93 233 2 C234.81 5.11 235.26 7.4 235.29 10.98 C235.3 11.97 235.32 12.96 235.33 13.97 C235.33 15.03 235.33 16.09 235.34 17.19 C235.34 17.73 235.34 17.73 235.36 20.5 C235.37 22.82 235.37 25.13 235.37 27.44 C235.37 30.99 235.41 34.53 235.45 38.07 C235.46 40.32 235.46 42.57 235.46 44.81 C235.47 45.34 235.47 45.34 235.5 48.03 C235.46 55.39 235.46 55.39 232.97 58.7 C231 60 231 60 228.67 59.55 C225.6 57.77 225.47 57.26 224.49 54.01 C224.08 52.39 223.68 50.76 223.31 49.12 C222.92 47.5 222.52 45.88 222.11 44.26 C221.95 43.54 221.78 42.82 221.61 42.07 C220.96 39.86 220.17 37.99 219 36 C217 34.94 217 34.94 214 34 C213.39 33.76 212.78 33.53 212.15 33.29 C206.55 31.3 200.99 30.54 195.11 29.98 C194.68 29.93 194.68 29.93 192.49 29.72 C181.76 28.72 171.01 28.3 160.25 27.88 C158.17 27.79 156.1 27.7 154.02 27.61 C149.01 27.4 144.01 27.2 139 27 C138.98 43.85 138.96 60.71 138.95 77.56 C138.94 85.39 138.94 93.23 138.92 101.06 C138.88 133.87 138.92 166.67 139.41 199.48 C139.44 201.6 139.47 203.73 139.5 205.85 C140.19 254.27 140.19 254.27 147.3 261.26 C154.6 265.96 163.82 266.36 172.29 266.79 C175 267 175 267 178 268 C178.62 270.88 178.62 270.88 179 274 C176.37 276.63 174.4 276.93 170.74 277.11 C169.91 277.1 169.08 277.09 168.23 277.08 C167.27 277.08 166.32 277.07 165.33 277.06 C164.29 277.05 163.25 277.04 162.17 277.02 C161.62 277.02 161.62 277.02 158.83 276.99 C155.18 276.96 151.54 276.92 147.89 276.88 C145.36 276.85 142.84 276.83 140.31 276.81 C134.33 276.75 128.36 276.69 122.38 276.63 C115.58 276.55 108.78 276.49 101.98 276.42 C87.98 276.29 73.99 276.15 60 276 C58.94 273.64 58.94 273.64 58 271 C58.92 268.76 58.92 268.76 61 267 C64.33 266.24 64.33 266.24 68.25 265.88 C78.58 264.86 78.58 264.86 83 263 C87.38 252.63 87.32 240.35 87.63 229.26 C87.67 227.94 87.72 226.62 87.76 225.27 C87.87 221.65 87.97 218.03 88.07 214.41 C88.13 212.1 88.19 209.79 88.25 207.49 C89 179.83 89.19 152.18 89.19 124.51 C89.19 121.5 89.19 118.49 89.19 115.47 C89.2 86.3 88.72 57.16 88 28 C84.66 28 81.31 27.99 77.97 27.99 C77.03 27.99 76.09 27.99 75.12 27.99 C20.32 27.96 20.32 27.96 8.19 37.12 C4.71 41.69 2.91 46.91 1.3 52.39 C0.62 54.56 0.62 54.56 -1 58 C-4 59.19 -4 59.19 -7 59 C-9.27 57.38 -9.92 56.43 -10.43 53.67 C-10.45 43.15 -8.5 33.04 -6.52 22.74 C-6.05 20.28 -5.61 17.82 -5.17 15.36 C-4.93 14.03 -4.68 12.7 -4.44 11.38 C-4.33 10.81 -4.33 10.81 -3.81 7.96 C-2.97 4.89 -1.77 2.64 0 0 Z " fill="#f0ede8" transform="translate(3036,453)"/>
<path d="M0 0 C0.59 0.03 0.59 0.03 3.57 0.16 C4.88 0.22 6.18 0.29 7.52 0.35 C22.33 0.97 37.13 1.1 51.96 1.1 C53.01 1.1 54.07 1.11 55.16 1.11 C74.36 1.15 74.36 1.15 82.15 0.48 C92.09 -0.35 102.07 -0.25 112.03 -0.26 C115.53 -0.27 119.03 -0.3 122.54 -0.34 C167.48 -0.55 214.8 7.89 248.33 39.98 C248.67 40.29 248.67 40.29 250.41 41.86 C263.07 53.75 271.11 69.63 276.33 85.98 C276.44 86.31 276.44 86.31 277 87.99 C282.81 105.65 284.23 124.45 283.33 142.98 C283.31 143.36 283.31 143.36 283.22 145.29 C282.17 164.61 278.8 184.91 269.33 201.98 C268.65 203.29 267.98 204.6 267.3 205.92 C262.62 214.84 257.4 221.75 250.33 228.98 C249.2 230.32 248.07 231.68 246.96 233.04 C235.52 246.08 219.93 254.84 204.33 261.98 C203.79 262.23 203.79 262.23 201.03 263.5 C162.24 280.22 118.98 276.76 78.01 273.4 C55.54 271.6 33.23 271.65 10.73 272.78 C8.57 272.88 6.41 272.97 4.25 273.05 C3.63 273.08 3.63 273.08 0.49 273.23 C-2.96 272.95 -4.28 272.44 -6.67 269.98 C-7.23 267.48 -7.23 267.48 -6.67 264.98 C-4.31 262.62 -2.45 262 0.87 261.9 C2.78 261.95 4.69 262.01 6.6 262.07 C10.49 261.94 12.92 260.79 16.33 258.98 C16.99 258.65 17.65 258.32 18.33 257.98 C23.91 242.39 22.53 223.63 22.88 207.25 C22.89 206.78 22.89 206.78 22.95 204.4 C23.43 182.52 23.49 160.64 23.46 138.76 C23.46 133.36 23.46 127.96 23.47 122.57 C23.48 101.46 23.4 80.37 22.89 59.27 C22.87 58.44 22.85 57.61 22.83 56.75 C22.51 43.11 21.72 29.56 20.33 15.98 C19.61 15.69 18.89 15.4 18.14 15.1 C16.44 14.42 14.75 13.7 13.09 12.91 C8.45 11.34 3.61 11.22 -1.25 10.85 C-1.64 10.82 -1.64 10.82 -3.61 10.64 C-4.32 10.58 -5.03 10.53 -5.75 10.47 C-8.17 9.85 -9.16 8.94 -10.67 6.98 C-10.61 4.41 -10.61 4.41 -9.67 1.98 C-6.42 -0.22 -3.84 -0.2 0 0 Z M75.68 24.1 C73.65 26.93 73.9 29.31 73.83 32.78 C73.81 33.48 73.79 34.19 73.77 34.91 C73.72 37.3 73.69 39.68 73.66 42.07 C73.62 43.8 73.59 45.53 73.56 47.26 C73.15 69.8 73.15 92.35 73.15 114.9 C73.15 119.94 73.14 124.97 73.13 130.01 C73.06 155.86 73.15 181.68 74.16 207.51 C74.19 208.49 74.23 209.47 74.26 210.49 C75.22 236.61 75.22 236.61 84.33 245.98 C93.29 254.15 108.71 255.62 120.33 255.98 C121.3 256.02 122.26 256.06 123.26 256.1 C132.6 256.3 141.82 255.32 151.08 254.24 C152.96 254.02 154.84 253.83 156.72 253.64 C165.63 252.54 173.34 248.87 181.33 244.98 C182.49 244.42 183.66 243.86 184.86 243.28 C206.09 232.46 218.42 215.3 225.69 193.1 C237.17 155.38 233.74 114.42 216.46 79.05 C203.37 54.58 179.41 35.47 153.14 26.79 C134.19 21.32 92.82 12.45 75.68 24.1 Z " fill="#f0ede8" transform="translate(1266.66796875,457.0234375)"/>
<path d="M0 0 C0.92 -0.01 1.83 -0.01 2.78 -0.02 C3.28 -0.02 3.28 -0.02 5.84 -0.01 C6.37 -0.02 6.37 -0.02 9.05 -0.03 C12.57 -0.04 16.09 -0.04 19.6 -0.04 C22.04 -0.04 24.48 -0.05 26.91 -0.05 C32.02 -0.06 37.13 -0.06 42.25 -0.05 C48.81 -0.05 55.37 -0.07 61.94 -0.09 C66.97 -0.1 72 -0.1 77.04 -0.1 C79.46 -0.1 81.88 -0.11 84.3 -0.12 C87.68 -0.13 91.06 -0.12 94.43 -0.11 C95.44 -0.12 96.45 -0.13 97.49 -0.13 C98.41 -0.13 99.32 -0.12 100.27 -0.11 C101.07 -0.11 101.87 -0.11 102.69 -0.11 C103.33 0.01 103.97 0.13 104.63 0.26 C106.63 3.26 106.63 3.26 106.32 5.89 C105.63 8.26 105.63 8.26 104.63 9.26 C101.36 9.68 98.09 10.03 94.8 10.33 C90.15 10.84 86.8 11.98 82.63 14.26 C81.97 14.26 81.31 14.26 80.63 14.26 C76.66 27.32 77.07 40.75 76.96 54.28 C76.93 57.07 76.9 59.86 76.86 62.64 C76.59 85.17 76.59 107.7 76.64 130.23 C76.64 131.02 76.65 131.82 76.65 132.64 C76.68 148.17 76.73 163.7 76.81 179.23 C76.84 186.63 76.86 194.03 76.88 201.43 C76.88 205.28 76.9 209.13 76.92 212.98 C77.19 252.56 74.31 294.96 45.4 324.86 C42.87 327.41 40.34 329.89 37.63 332.26 C36.97 332.26 36.31 332.26 35.63 332.26 C35.63 332.92 35.63 333.58 35.63 334.26 C33.71 335.91 31.79 337.44 29.76 338.95 C29.16 339.4 28.57 339.85 27.95 340.31 C26.19 341.64 24.41 342.95 22.63 344.26 C21.79 344.89 20.94 345.51 20.07 346.16 C9.96 353.44 -0.4 359.77 -11.99 364.39 C-12.75 364.69 -13.51 365 -14.29 365.32 C-18.34 366.85 -21.09 367.73 -25.37 366.26 C-26.18 363.57 -26.18 363.57 -26.37 360.26 C-23.2 356.64 -19.65 353.91 -15.74 351.14 C5.99 335.02 17.49 312.93 21.57 286.53 C24.01 269.29 24.82 252.06 25.19 234.67 C25.21 233.71 25.23 232.75 25.25 231.76 C25.86 203.02 25.79 174.27 25.76 145.52 C25.76 140.15 25.76 134.78 25.77 129.41 C25.81 71.24 25.81 71.24 25.36 51.24 C25.32 49.18 25.28 47.13 25.25 45.07 C25.05 38.33 24.41 31.74 23.34 25.09 C23.24 24.37 23.13 23.65 23.02 22.9 C22.24 18.48 21.22 16.01 17.63 13.26 C12.35 10.96 6.88 10.6 1.21 10.05 C-4.16 9.47 -4.16 9.47 -6.37 7.26 C-6.62 4.76 -6.62 4.76 -6.37 2.26 C-3.93 -0.17 -3.33 0.01 0 0 Z " fill="#f0ede8" transform="translate(1096.3651123046875,457.7393035888672)"/>
<path d="M0 0 C0.88 -0.01 1.77 -0.01 2.68 -0.02 C3.65 -0.01 4.62 -0.01 5.61 -0 C6.64 -0.01 7.66 -0.01 8.71 -0.02 C12.09 -0.02 15.47 -0.02 18.86 -0.01 C21.2 -0.01 23.55 -0.01 25.89 -0.02 C30.81 -0.02 35.73 -0.02 40.64 -0.01 C46.96 0 53.27 -0 59.59 -0.01 C64.43 -0.02 69.27 -0.02 74.11 -0.01 C76.44 -0.01 78.77 -0.01 81.1 -0.02 C84.35 -0.02 87.6 -0.02 90.85 -0 C91.82 -0.01 92.79 -0.01 93.79 -0.02 C94.67 -0.01 95.55 -0.01 96.46 0 C96.84 0 96.84 0 98.79 0 C100.67 0.25 100.67 0.25 102.67 2.25 C102.79 5.38 102.79 5.38 102.67 8.25 C97.08 10.07 91.59 10.84 85.75 11.5 C82.09 12.39 80.3 13.58 77.67 16.25 C74.57 22.6 74.41 30.14 74.1 37.1 C74.06 37.99 74.01 38.89 73.97 39.81 C73.43 53.36 73.52 66.93 73.53 80.48 C73.53 84.51 73.53 88.53 73.53 92.56 C73.53 99.32 73.53 106.09 73.54 112.85 C73.54 120.58 73.54 128.31 73.53 136.04 C73.53 142.76 73.53 149.48 73.53 156.2 C73.53 160.18 73.53 164.15 73.53 168.13 C73.52 183.7 73.61 199.25 74.12 214.81 C74.14 215.42 74.14 215.42 74.24 218.49 C75.34 249.01 75.34 249.01 80.92 256.13 C86.3 260.29 92.29 260.7 98.85 261.32 C100.45 261.47 102.05 261.63 103.65 261.79 C104.35 261.85 105.05 261.92 105.77 261.99 C107.67 262.25 107.67 262.25 110.67 263.25 C111.29 266.13 111.29 266.13 111.67 269.25 C109.67 271.25 109.67 271.25 106.83 271.49 C106.23 271.48 106.23 271.48 103.15 271.47 C102.48 271.46 101.81 271.46 101.12 271.46 C98.88 271.45 96.65 271.43 94.41 271.41 C92.83 271.41 91.25 271.4 89.67 271.4 C85.48 271.39 81.28 271.36 77.09 271.33 C70.51 271.29 63.93 271.26 57.35 271.24 C55.72 271.23 54.09 271.22 52.46 271.22 C43.79 271.18 35.12 271.22 26.45 271.54 C25.72 271.57 24.98 271.6 24.23 271.62 C20.8 271.75 17.37 271.9 13.95 272.07 C6.86 272.37 0.54 272.09 -6.33 270.25 C-6.96 267.38 -6.96 267.38 -7.33 264.25 C-4.07 260.99 0.75 261.53 5.19 261.22 C10.4 260.74 13.39 259.46 17.67 256.25 C18.33 256.25 18.99 256.25 19.67 256.25 C21.83 242.22 22.35 228.18 22.79 214 C22.83 212.7 22.88 211.4 22.92 210.05 C23.77 183.05 23.85 156.05 23.85 129.03 C23.85 125.8 23.86 122.57 23.86 119.34 C23.86 98.95 23.79 78.55 23.34 58.16 C23.3 56.53 23.27 54.9 23.23 53.27 C23.03 43.12 22.18 33.3 20.67 23.25 C20.58 22.41 20.5 21.57 20.41 20.7 C20 17.84 19.35 15.81 17.06 13.96 C11.08 10.86 4.43 10.39 -2.17 9.75 C-5.33 9.25 -5.33 9.25 -7.33 7.25 C-7.65 4.75 -7.65 4.75 -7.33 2.25 C-4.22 0.18 -3.54 0 0 0 Z " fill="#f0ede8" transform="translate(1740.333511352539,457.74603271484375)"/>
<path d="M0 0 C0.47 -0 0.47 -0 2.85 -0.01 C3.89 -0.01 4.92 -0.01 5.99 -0.01 C6.53 -0.01 6.53 -0.01 9.29 -0.02 C12.9 -0.03 16.51 -0.03 20.12 -0.03 C22.62 -0.04 25.12 -0.04 27.62 -0.04 C32.87 -0.05 38.12 -0.05 43.37 -0.05 C49.43 -0.05 55.5 -0.06 61.57 -0.08 C67.41 -0.09 73.24 -0.1 79.08 -0.09 C81.56 -0.1 84.05 -0.1 86.53 -0.11 C90 -0.12 93.47 -0.12 96.94 -0.11 C97.45 -0.11 97.45 -0.11 100.07 -0.13 C101.01 -0.12 101.96 -0.12 102.93 -0.11 C103.75 -0.11 104.57 -0.11 105.42 -0.12 C107.53 0.13 107.53 0.13 110.53 2.13 C110.84 4.63 110.84 4.63 110.53 7.13 C108.26 9.4 107.53 9.49 104.47 9.95 C103.67 10.07 102.87 10.2 102.05 10.33 C101.22 10.45 100.39 10.57 99.53 10.7 C97.88 10.94 96.24 11.2 94.59 11.45 C94.22 11.5 94.22 11.5 92.38 11.78 C90.53 12.13 90.53 12.13 88.53 13.13 C85.46 25.4 93.55 39.34 98.03 50.57 C99.12 53.33 100.21 56.09 101.29 58.85 C102.02 60.69 102.74 62.52 103.47 64.36 C106.5 72.03 109.44 79.73 112.34 87.45 C119 105.11 125.92 122.68 132.97 140.2 C135.62 146.8 138.14 153.43 140.53 160.13 C144.11 170.18 148.11 179.91 152.63 189.57 C153.01 190.38 153.38 191.19 153.77 192.03 C153.94 192.39 153.94 192.39 154.8 194.21 C155.53 196.13 155.53 196.13 155.53 199.13 C156.52 199.13 157.51 199.13 158.53 199.13 C158.78 198 159.03 196.88 159.28 195.71 C160.5 190.86 162.42 186.44 164.47 181.88 C168.24 173.28 171.75 164.58 175.15 155.82 C178.08 148.3 181.02 140.81 184.34 133.45 C187.06 127.39 189.36 121.26 191.49 114.98 C192.97 110.6 194.67 106.36 196.53 102.13 C203.74 85.4 210.64 68.56 217.2 51.56 C218.52 48.16 219.85 44.77 221.18 41.38 C222.01 39.26 222.83 37.13 223.65 35.01 C224.03 34.06 224.41 33.1 224.8 32.12 C229.4 20.07 229.4 20.07 228.53 14.13 C226.03 11.64 224.01 10.76 220.52 10.51 C220.15 10.48 220.15 10.48 218.28 10.31 C216.73 10.19 215.19 10.08 213.64 9.96 C209.47 9.58 207.27 9.32 204.53 6.13 C206.4 1.26 206.4 1.26 207.53 0.13 C210.22 0.02 212.89 -0.02 215.58 -0.03 C216.42 -0.03 217.27 -0.04 218.14 -0.04 C220.94 -0.06 223.75 -0.06 226.55 -0.07 C228.49 -0.08 230.44 -0.08 232.38 -0.09 C236.45 -0.1 240.53 -0.1 244.61 -0.11 C249.84 -0.11 255.07 -0.14 260.3 -0.16 C264.32 -0.18 268.33 -0.19 272.34 -0.19 C274.27 -0.19 276.2 -0.2 278.13 -0.21 C280.83 -0.23 283.52 -0.23 286.22 -0.22 C287.02 -0.23 287.82 -0.24 288.64 -0.25 C294.01 -0.21 294.01 -0.21 296.57 1.49 C297.53 3.13 297.53 3.13 297.22 5.82 C297.1 6.2 297.1 6.2 296.53 8.13 C292.17 9.52 288 10.38 283.47 11.01 C275.92 12.22 272.08 15.1 267.53 21.13 C260.11 32.77 254.71 45.38 249.23 58.01 C247.73 61.46 246.2 64.86 244.48 68.2 C241.85 73.35 239.72 78.72 237.53 84.07 C234.95 90.34 232.35 96.58 229.57 102.76 C227.86 106.64 226.25 110.55 224.62 114.46 C220.67 123.92 216.65 133.23 211.93 142.33 C210.3 145.59 208.99 148.91 207.69 152.31 C205.82 156.86 203.66 161.29 201.52 165.72 C199.37 170.2 197.46 174.73 195.64 179.35 C193.42 184.9 191.02 190.39 188.65 195.88 C188.15 197.06 187.64 198.23 187.13 199.44 C186.11 201.81 185.09 204.18 184.06 206.56 C183.03 208.96 182.01 211.36 180.98 213.76 C157.91 267.86 157.91 267.86 149.53 275.13 C146.16 276.21 144.35 276.44 141.03 275.2 C132.9 268.49 129.08 258.47 124.78 249.13 C124.06 247.6 123.35 246.07 122.64 244.53 C117.36 233.15 112.43 221.65 107.71 210.03 C105.61 204.9 103.44 199.8 101.28 194.7 C100.83 193.64 100.38 192.58 99.92 191.49 C97.59 185.99 95.25 180.49 92.91 174.99 C91.39 171.41 89.86 167.84 88.34 164.26 C88.04 163.55 87.74 162.84 87.42 162.11 C83.63 153.18 79.92 144.22 76.36 135.19 C73.1 126.95 69.53 118.85 65.97 110.74 C62.73 103.34 59.61 95.89 56.5 88.44 C55.51 86.1 54.53 83.77 53.54 81.43 C50.1 73.32 46.73 65.19 43.47 57.01 C43.13 56.18 42.8 55.35 42.46 54.49 C40.86 50.5 39.28 46.49 37.72 42.48 C32.68 29.7 27.73 18.24 14.73 12 C10.93 10.51 7.05 9.94 3.03 9.38 C2.62 9.32 2.62 9.32 0.54 9 C-1.47 8.7 -3.47 8.42 -5.47 8.13 C-5.8 5.82 -6.13 3.51 -6.47 1.13 C-4.1 -0.05 -2.65 0.01 0 0 Z " fill="#f0ede8" transform="translate(2231.4722747802734,457.8662872314453)"/>
<path d="M0 0 C0.12 7.75 0.12 7.75 -1 10 C-1.28 12.44 -1.52 14.87 -1.72 17.32 C-1.78 18.05 -1.84 18.78 -1.91 19.53 C-2.11 21.87 -2.31 24.22 -2.5 26.56 C-2.99 32.38 -3.49 38.19 -4 44 C-4.04 44.5 -4.04 44.5 -4.25 47.03 C-4.77 52.77 -4.77 52.77 -7 55 C-9.5 55.25 -9.5 55.25 -12 55 C-15.05 51.95 -15.05 47.9 -15.68 43.76 C-16.65 38.21 -18.56 34.13 -22.84 30.39 C-28.57 27.27 -34.06 26.45 -40.45 25.9 C-41.37 25.82 -42.28 25.73 -43.23 25.65 C-53.74 24.76 -64.26 24.55 -74.81 24.38 C-76.79 24.34 -78.76 24.3 -80.74 24.26 C-85.49 24.16 -90.25 24.08 -95 24 C-96.1 70.93 -96.1 70.93 -96.12 89.19 C-96.13 90.32 -96.13 91.46 -96.14 92.62 C-96.13 98.07 -95.93 103.45 -95.49 108.88 C-95.4 110.04 -95.31 111.19 -95.21 112.37 C-95.14 113.24 -95.07 114.11 -95 115 C-87.32 115.08 -79.64 115.13 -71.95 115.16 C-69.35 115.18 -66.74 115.2 -64.13 115.23 C-27.24 115.59 -27.24 115.59 -15 108 C-14.34 107.34 -13.68 106.68 -13 106 C-10.5 105.75 -10.5 105.75 -8 106 C-6 108 -6 108 -5.92 110.4 C-6.01 111.4 -6.09 112.41 -6.17 113.44 C-6.22 114.01 -6.22 114.01 -6.43 116.86 C-6.54 118.09 -6.64 119.31 -6.75 120.56 C-6.85 121.81 -6.95 123.05 -7.05 124.34 C-7.26 126.93 -7.47 129.53 -7.69 132.13 C-7.99 135.82 -8.26 139.51 -8.52 143.21 C-8.68 145.43 -8.84 147.65 -9 149.88 C-9.07 150.91 -9.14 151.94 -9.21 153 C-9.59 157.97 -10.1 162.34 -12 167 C-13.98 167 -15.96 167 -18 167 C-18.25 165.9 -18.51 164.81 -18.77 163.68 C-19.12 162.22 -19.46 160.77 -19.81 159.31 C-19.98 158.59 -20.14 157.87 -20.31 157.13 C-21.54 152.05 -22.9 147.93 -26.86 144.29 C-29.31 142.81 -31.54 142.09 -34.31 141.38 C-35.22 141.14 -36.12 140.9 -37.05 140.65 C-44.19 139.08 -51.11 138.8 -58.4 138.68 C-58.94 138.67 -58.94 138.67 -61.67 138.62 C-65.09 138.56 -68.51 138.5 -71.94 138.44 C-74.27 138.39 -76.6 138.35 -78.92 138.31 C-84.62 138.2 -90.31 138.1 -96 138 C-96.11 160.13 -96.08 182.26 -95.68 204.39 C-95.64 206.53 -95.61 208.68 -95.58 210.83 C-95.53 213.86 -95.48 216.89 -95.41 219.91 C-95.4 220.8 -95.39 221.69 -95.38 222.61 C-95.22 229.27 -94.76 235.95 -91.38 241.81 C-81.56 250.86 -66.68 251.52 -54 252 C-53.06 252.05 -52.12 252.11 -51.15 252.16 C-38.21 252.58 -22.17 251.79 -12 243 C-11.42 242.51 -10.85 242.02 -10.25 241.51 C-5.2 236.43 -3.29 229.64 -1 223 C1.87 215.13 1.87 215.13 3 214 C5.38 213.69 5.38 213.69 8 214 C10.7 216.83 11.38 218.75 11.29 222.62 C11.24 224.56 11.16 226.5 11.06 228.44 C11.04 228.96 11.04 228.96 10.92 231.58 C10.37 240.48 8.91 249.15 7.12 257.88 C6.87 259.15 6.61 260.42 6.35 261.73 C4.39 270.74 4.39 270.74 1 273 C-1.51 273.47 -3.94 273.83 -6.48 274.11 C-7.23 274.19 -7.98 274.28 -8.76 274.36 C-17.63 275.27 -26.47 275.3 -35.38 275.25 C-36.3 275.25 -37.22 275.25 -38.17 275.24 C-56.28 275.2 -74.37 274.56 -92.46 273.86 C-114.3 273.01 -136.06 272.85 -157.91 273.07 C-159.05 273.08 -160.19 273.09 -161.36 273.1 C-163.49 273.12 -165.61 273.14 -167.74 273.18 C-168.67 273.18 -169.61 273.19 -170.57 273.2 C-171.38 273.21 -172.19 273.22 -173.03 273.23 C-175 273 -175 273 -177 271 C-176.62 267.88 -176.62 267.88 -176 265 C-171.09 263.65 -166.37 262.79 -161.31 262.19 C-157.52 261.59 -155.17 261.1 -151.81 259.19 C-148.92 254.1 -148.58 248.75 -148 243 C-147.92 242.35 -147.84 241.7 -147.75 241.03 C-147.06 235.41 -146.83 229.88 -146.79 224.22 C-146.78 223.29 -146.77 222.35 -146.76 221.39 C-146.73 218.3 -146.71 215.22 -146.68 212.13 C-146.66 209.93 -146.64 207.73 -146.62 205.53 C-146.58 200.9 -146.54 196.27 -146.5 191.63 C-146.45 185.86 -146.4 180.09 -146.34 174.31 C-145.54 91.65 -145.54 91.65 -146.32 56.86 C-146.38 54.04 -146.42 51.23 -146.47 48.41 C-146.96 22.44 -146.96 22.44 -150.87 17.76 C-157.08 12.63 -164.91 12.37 -172.61 11.62 C-175.99 11 -177.52 10.3 -180 8 C-179.12 3.12 -179.12 3.12 -178 2 C-176.31 1.91 -174.61 1.89 -172.92 1.9 C-171.82 1.9 -170.72 1.91 -169.58 1.91 C-168.97 1.91 -168.97 1.91 -165.88 1.93 C-163.92 1.94 -161.95 1.95 -159.99 1.96 C-157.87 1.96 -155.75 1.97 -153.62 1.99 C-149.16 2.01 -144.71 2.02 -140.25 2.03 C-127.56 2.07 -114.88 2.11 -102.19 2.17 C-92.95 2.22 -83.7 2.25 -74.45 2.26 C-74.08 2.26 -74.08 2.26 -72.18 2.26 C-50.6 2.29 -29.19 1.86 -7.75 -0.84 C-4.96 -1 -2.7 -0.68 0 0 Z " fill="#f0ede8" transform="translate(2732,456)"/>
</svg>
