<?xml version="1.0" encoding="UTF-8"?>
<!-- Generator: visioncortex VTracer 0.6.12 -->
<svg version="1.1" xmlns="http://www.w3.org/2000/svg" width="2944" height="1440">
<path d="M0 0 C95.7 0 191.4 0 290 0 C290 255.42 290 510.84 290 774 C285.09 773.18 282.06 772.34 277.67 770.34 C276.47 769.8 275.26 769.26 274.02 768.7 C272.75 768.11 271.47 767.52 270.19 766.94 C268.87 766.34 267.55 765.74 266.23 765.14 C262.48 763.44 258.74 761.72 255 760 C254.11 759.59 253.21 759.18 252.29 758.76 C226.04 746.79 200.57 732.6 176.12 717.31 C173.9 715.94 171.67 714.58 169.43 713.23 C159.78 707.4 150.31 701.36 141 695 C140.11 694.4 139.22 693.79 138.3 693.17 C127.83 685.96 117.89 677.99 108 670 C107.11 669.29 106.21 668.58 105.29 667.86 C99.61 663.31 94.4 658.53 89.32 653.32 C87.33 651.33 85.29 649.5 83.12 647.69 C73.72 639.61 65.59 629.74 58 620 C57.59 619.48 57.18 618.96 56.76 618.42 C40.77 597.94 29.15 574.74 18.87 551 C18.11 549.26 17.34 547.53 16.56 545.79 C8.46 527.28 4.45 506.97 2 487 C1.91 486.36 1.91 486.36 1.48 483.14 C-0.49 467.16 -0.27 451.15 -0.2 435.09 C-0.18 432.01 -0.19 428.94 -0.19 425.86 C-0.19 422.89 -0.18 419.93 -0.17 416.96 C-0.17 415.55 -0.17 414.13 -0.17 412.72 C-0.16 410.76 -0.16 408.81 -0.15 406.85 C-0.14 405.74 -0.14 404.63 -0.13 403.49 C0 401 0 401 1 400 C3.2 399.9 5.41 399.87 7.62 399.87 C8.31 399.87 9 399.87 9.71 399.87 C12 399.86 14.3 399.86 16.59 399.87 C18.18 399.87 19.77 399.87 21.36 399.86 C24.69 399.86 28.02 399.86 31.35 399.87 C35.64 399.88 39.92 399.87 44.2 399.87 C47.48 399.86 50.76 399.86 54.04 399.87 C55.62 399.87 57.2 399.87 58.78 399.86 C60.98 399.86 63.18 399.87 65.38 399.87 C66.01 399.87 66.01 399.87 69.19 399.87 C72 400 72 400 73 401 C73.11 402.77 73.16 404.54 73.17 406.3 C73.19 407.44 73.2 408.58 73.21 409.75 C73.22 410.37 73.22 410.37 73.25 413.52 C73.27 415.48 73.3 417.44 73.32 419.41 C73.38 424.24 73.43 429.08 73.48 433.91 C73.75 462 75.17 488.47 85 515 C85.36 515.98 85.72 516.95 86.09 517.96 C93.83 538.73 103.87 556.23 117 574 C117.45 574.61 117.9 575.23 118.36 575.86 C128.1 589.1 139.36 600.99 152.9 610.36 C153.59 610.9 154.29 611.44 155 612 C155 612.66 155 613.32 155 614 C155.57 614.26 156.14 614.51 156.72 614.78 C159.25 616.13 161.24 617.73 163.44 619.56 C173 627.3 183.35 633.94 193.62 640.69 C194.58 641.32 195.53 641.95 196.51 642.6 C197.45 643.21 198.39 643.82 199.35 644.45 C199.76 644.72 199.76 644.72 201.85 646.08 C206.47 648.89 211.25 651.41 216 654 C216 462.27 216 270.54 216 73 C169.14 73 122.28 73 74 73 C73.67 88.51 73.34 104.02 73 120 C48.91 120 24.82 120 0 120 C0 80.4 0 40.8 0 0 Z " fill="#f0ede8" transform="translate(1164,137)"/>
<path d="M0 0 C232.29 0 232.29 0 262.75 29.5 C275.12 42.26 282.18 57.09 287 74 C287.09 74.33 287.09 74.33 287.57 76 C290.25 85.98 290.15 96.03 290.14 106.28 C290.14 107.83 290.15 109.38 290.15 110.94 C290.16 115.18 290.16 119.43 290.16 123.68 C290.16 128.26 290.17 132.85 290.18 137.44 C290.19 147.47 290.2 157.49 290.2 167.52 C290.2 173.79 290.21 180.07 290.21 186.34 C290.22 203.74 290.23 221.14 290.24 238.53 C290.24 239.65 290.24 240.76 290.24 241.91 C290.24 243.02 290.24 244.14 290.24 245.29 C290.24 247.55 290.24 249.81 290.24 252.07 C290.24 253.19 290.24 254.31 290.24 255.46 C290.24 273.59 290.26 291.71 290.29 309.83 C290.31 328.48 290.32 347.12 290.32 365.77 C290.32 376.22 290.33 386.67 290.35 397.13 C290.36 406.04 290.37 414.95 290.36 423.86 C290.36 428.39 290.36 432.92 290.37 437.46 C290.46 467.11 288.45 495.14 281 524 C280.6 525.62 280.21 527.23 279.82 528.85 C271.85 560.55 254.77 591.15 235 617 C234.57 617.58 234.13 618.16 233.69 618.76 C225.3 629.93 215.53 639.76 205.69 649.62 C205.03 650.28 204.38 650.94 203.7 651.62 C196.78 658.56 189.92 665.2 182 671 C180.81 671.95 179.62 672.92 178.44 673.89 C169.84 680.9 160.97 687.4 151.85 693.71 C149.44 695.39 147.07 697.1 144.69 698.81 C140.37 701.83 135.88 704.45 131.31 707.07 C127.63 709.22 124.04 711.47 120.44 713.75 C111.43 719.41 102.26 724.76 93 730 C91.95 730.6 90.89 731.19 89.81 731.81 C66.64 744.86 43.07 756.97 18.9 768.05 C17.52 768.68 16.14 769.31 14.76 769.95 C12.85 770.83 10.94 771.7 9.02 772.56 C7.93 773.06 6.84 773.56 5.71 774.07 C3 775 3 775 0 774 C0 518.58 0 263.16 0 0 Z M73 73 C72.9 76.07 72.87 79.12 72.88 82.2 C72.88 83.18 72.87 84.16 72.87 85.17 C72.87 88.51 72.88 91.84 72.88 95.18 C72.88 97.57 72.88 99.97 72.88 102.37 C72.88 107.6 72.88 112.84 72.88 118.07 C72.89 125.86 72.89 133.64 72.89 141.43 C72.88 154.52 72.89 167.61 72.89 180.7 C72.9 193.67 72.9 206.64 72.91 219.61 C72.91 220.42 72.91 221.22 72.91 222.05 C72.91 226.14 72.91 230.23 72.91 234.32 C72.91 263.32 72.92 292.31 72.92 321.31 C72.93 349.48 72.94 377.65 72.95 405.82 C72.95 406.69 72.95 407.56 72.95 408.45 C72.95 417.17 72.95 425.89 72.95 434.6 C72.95 452.36 72.95 470.11 72.96 487.87 C72.96 488.69 72.96 489.5 72.96 490.34 C72.97 544.9 72.98 599.45 73 654 C74.83 654.59 74.83 654.59 77 655 C79.79 653.55 79.79 653.55 83.06 651.31 C84.32 650.47 85.58 649.62 86.84 648.78 C87.51 648.33 88.18 647.87 88.87 647.41 C91.05 645.97 93.25 644.59 95.48 643.22 C112.19 632.93 127.81 621.54 142.41 608.42 C143.84 607.14 145.28 605.87 146.73 604.61 C187.49 568.63 213.25 518.96 216.66 464.49 C217.08 457.27 217.14 450.07 217.13 442.84 C217.13 441.39 217.13 439.93 217.13 438.48 C217.14 434.54 217.13 430.6 217.13 426.66 C217.13 422.39 217.13 418.12 217.13 413.85 C217.14 405.51 217.14 397.17 217.14 388.82 C217.13 382.04 217.13 375.26 217.13 368.47 C217.13 367.99 217.13 367.99 217.13 365.54 C217.13 363.57 217.13 361.6 217.14 359.64 C217.14 341.22 217.13 322.81 217.13 304.4 C217.12 288.62 217.13 272.84 217.13 257.07 C217.14 238.71 217.14 220.36 217.13 202 C217.13 200.04 217.13 198.09 217.13 196.13 C217.13 195.16 217.13 194.2 217.13 193.21 C217.13 186.43 217.13 179.66 217.14 172.89 C217.14 164.63 217.14 156.37 217.13 148.12 C217.13 143.91 217.13 139.7 217.13 135.49 C217.14 131.63 217.13 127.77 217.13 123.91 C217.13 121.87 217.13 119.83 217.13 117.79 C217.07 89.32 217.07 89.32 209.36 80.02 C200.72 72.13 190.67 71.85 179.59 71.87 C179.02 71.87 179.02 71.87 176.14 71.87 C172.38 71.86 168.62 71.86 164.86 71.87 C162.24 71.87 159.63 71.87 157.02 71.86 C151.55 71.86 146.08 71.86 140.61 71.87 C134.29 71.88 127.96 71.87 121.63 71.87 C115.54 71.86 109.45 71.86 103.37 71.87 C100.77 71.87 98.18 71.87 95.59 71.86 C91.98 71.86 88.37 71.87 84.76 71.87 C83.68 71.87 82.6 71.87 81.48 71.86 C80.51 71.87 79.53 71.87 78.52 71.87 C77.67 71.87 76.81 71.87 75.93 71.87 C74 72 74 72 73 73 Z " fill="#f0ede8" transform="translate(1490,137)"/>
<path d="M0 0 C8.75 3.38 18.78 3.34 28.05 3.44 C29.18 3.46 30.32 3.48 31.49 3.5 C35.15 3.56 38.81 3.61 42.46 3.65 C45.01 3.69 47.57 3.73 50.12 3.76 C57.3 3.87 64.47 3.95 71.65 4.03 C72.51 4.04 73.38 4.05 74.26 4.06 C84.06 4.16 93.85 4.14 103.65 4.03 C104.13 4.02 104.13 4.02 106.54 3.99 C113.28 3.91 120.02 3.82 126.77 3.71 C129.03 3.67 131.3 3.64 133.56 3.6 C163.19 3.18 163.19 3.18 172.65 0.03 C176.15 -0.29 176.15 -0.29 179.65 0.03 C181.71 1.79 182.54 3.24 182.92 5.93 C183.03 8.35 183.04 10.75 183.01 13.17 C183.01 13.62 183.01 13.62 183.02 15.87 C183.01 17.75 183 19.63 182.99 21.51 C182.96 24.38 182.97 27.25 182.97 30.12 C182.97 31.95 182.96 33.78 182.95 35.61 C182.95 36.46 182.95 37.32 182.95 38.2 C182.83 48.85 182.83 48.85 179.65 52.03 C177.21 52.21 177.21 52.21 174.65 52.03 C172.24 49.61 172.04 47.55 171.26 44.31 C168.68 34.57 168.68 34.57 164.49 31.38 C158.83 28.19 154.23 26.9 147.7 26.71 C147.01 26.69 146.32 26.67 145.61 26.65 C144.14 26.6 142.67 26.56 141.2 26.52 C139.02 26.46 136.83 26.4 134.64 26.33 C127.54 26.13 120.45 26.01 113.35 26.02 C112.98 26.02 112.98 26.02 111.1 26.02 C109.29 26.02 107.47 26.02 105.65 26.03 C105.63 45.37 105.61 64.71 105.6 84.05 C105.59 93.04 105.59 102.02 105.58 111 C105.57 118.84 105.56 126.68 105.56 134.52 C105.56 138.66 105.55 142.8 105.55 146.95 C105.49 176.64 105.49 176.64 105.97 188.65 C105.99 189.39 106.01 190.14 106.04 190.91 C106.38 197.6 107.82 203.82 112.15 209.03 C116.77 212.72 122.26 212.61 127.93 213.19 C133.43 213.81 133.43 213.81 135.65 216.03 C135.4 219.59 135.4 219.59 134.65 223.03 C131.31 224.7 127.54 224.18 123.86 224.19 C122.95 224.19 122.04 224.2 121.1 224.2 C118.08 224.22 115.06 224.22 112.03 224.23 C109.94 224.23 107.84 224.24 105.75 224.25 C101.35 224.26 96.96 224.26 92.56 224.27 C86.92 224.27 81.28 224.3 75.64 224.32 C71.32 224.34 66.99 224.35 62.66 224.35 C60.58 224.35 58.5 224.36 56.42 224.37 C53.51 224.39 50.61 224.39 47.7 224.38 C46.84 224.39 45.98 224.4 45.09 224.41 C39.23 224.37 39.23 224.37 36.09 222.5 C35.85 222.26 35.85 222.26 34.65 221.03 C34.91 218.68 35.24 216.35 35.65 214.03 C39.03 212.33 42.87 212.68 46.61 212.5 C49.98 211.97 51.91 211.05 54.65 209.03 C70.74 182.6 60.89 127.8 60.79 97.16 C60.77 89.28 60.76 81.39 60.75 73.5 C60.73 57.34 60.7 41.18 60.65 25.03 C53.39 25.24 46.13 25.47 38.87 25.72 C36.41 25.8 33.94 25.87 31.47 25.94 C27.92 26.05 24.36 26.17 20.81 26.3 C20.26 26.31 20.26 26.31 17.49 26.38 C9.28 26.69 1.58 27.77 -4.35 34.03 C-6.42 37.86 -7.92 41.9 -9.47 45.96 C-10.35 48.03 -10.35 48.03 -12.35 50.03 C-14.85 49.84 -14.85 49.84 -17.35 49.03 C-19.83 45.31 -19.51 42.73 -19.22 38.46 C-19.18 37.7 -19.13 36.93 -19.08 36.14 C-18.54 28.74 -17.51 21.42 -16.41 14.09 C-16.24 12.94 -16.07 11.8 -15.9 10.62 C-15.73 9.55 -15.56 8.48 -15.38 7.37 C-15.23 6.41 -15.08 5.46 -14.93 4.47 C-14.35 2.03 -14.35 2.03 -12.35 -0.97 C-8.02 -2.42 -4.2 -1.74 0 0 Z " fill="#f0ede8" transform="translate(2264.3491973876953,1064.9742736816406)"/>
<path d="M0 0 C7.6 4.7 13.82 11.63 20 18 C23.36 21.37 26.74 24.73 30.11 28.09 C32.82 30.78 35.53 33.48 38.24 36.18 C39.66 37.6 41.08 39.01 42.5 40.43 C44.57 42.49 46.64 44.55 48.71 46.61 C49.34 47.23 49.96 47.86 50.61 48.5 C54.37 52.26 57.93 56.14 61.39 60.18 C63 62 64.69 63.69 66.44 65.38 C69 68 69 68 69 70 C69.57 70.24 70.14 70.49 70.73 70.74 C73.41 72.22 75.22 73.97 77.38 76.14 C77.81 76.57 77.81 76.57 79.98 78.73 C80.44 79.19 80.44 79.19 82.77 81.54 C83.73 82.5 84.7 83.47 85.66 84.43 C87.68 86.46 89.7 88.48 91.72 90.51 C94.28 93.09 96.85 95.66 99.42 98.24 C101.42 100.23 103.41 102.23 105.4 104.22 C106.8 105.63 108.2 107.03 109.6 108.44 C114.09 112.96 118.46 117.54 122.61 122.38 C124.36 124.41 126.21 126.31 128.12 128.19 C128.8 128.85 129.47 129.52 130.17 130.2 C130.77 130.8 131.38 131.39 132 132 C133.67 133.67 135.33 135.33 137 137 C137.34 137.33 137.34 137.33 139.06 139.02 C143.41 143.32 147.57 147.68 151.49 152.37 C153 154 153 154 156 156 C155.93 155.13 155.87 154.27 155.8 153.38 C155.05 143 154.72 132.65 154.5 122.25 C154.46 120.46 154.42 118.67 154.38 116.89 C154.27 112.2 154.17 107.52 154.06 102.84 C153.96 98.18 153.86 93.51 153.75 88.85 C153.73 87.94 153.71 87.03 153.69 86.09 C153.53 78.91 153.35 71.73 153.18 64.55 C153.06 59.69 152.96 54.82 152.86 49.95 C152.81 47.09 152.74 44.23 152.67 41.36 C152.63 39.45 152.6 37.54 152.57 35.62 C152.39 28.81 151.53 23.35 149 17 C148.35 16.88 147.69 16.76 147.02 16.63 C144.38 16.14 141.75 15.63 139.12 15.12 C138.19 14.95 137.25 14.78 136.29 14.6 C135.39 14.42 134.49 14.25 133.57 14.07 C133.16 13.99 133.16 13.99 131.06 13.59 C129 13 129 13 127 11 C126.81 7.94 126.81 7.94 127 5 C128.69 3.31 130.8 3.87 133.06 3.86 C133.43 3.87 133.43 3.87 135.26 3.87 C136.02 3.87 136.78 3.87 137.56 3.87 C140.08 3.86 142.6 3.86 145.12 3.87 C146.87 3.87 148.61 3.87 150.36 3.86 C154.02 3.86 157.68 3.86 161.35 3.87 C166.05 3.88 170.76 3.87 175.46 3.87 C179.06 3.86 182.67 3.86 186.27 3.87 C188.01 3.87 189.74 3.87 191.48 3.86 C193.9 3.86 196.32 3.87 198.74 3.87 C199.47 3.87 200.19 3.87 200.94 3.86 C205.89 3.89 205.89 3.89 207 5 C207.19 7.94 207.19 7.94 207 11 C203.92 14.08 199.76 14.06 195.59 14.68 C192.56 15.2 190.23 15.85 187.65 17.54 C182.19 25.69 183.34 37.81 182.94 47.31 C182.9 48.22 182.86 49.13 182.81 50.07 C182.03 67.66 181.67 85.26 181.38 102.88 C181.35 104.11 181.33 105.35 181.31 106.62 C181.1 119.9 180.99 133.18 181.03 146.46 C181.06 160 180.74 173.52 180.26 187.05 C180.12 190.82 180 194.59 179.89 198.36 C179.8 200.8 179.72 203.24 179.63 205.67 C179.6 206.78 179.57 207.89 179.53 209.03 C178.92 225.08 178.92 225.08 176 228 C172.3 228.72 170.16 228.63 166.82 226.82 C156.89 219.75 148.59 210.97 140.04 202.33 C138.32 200.61 136.6 198.88 134.88 197.16 C130.37 192.64 125.87 188.11 121.38 183.58 C116.8 178.98 112.21 174.38 107.63 169.78 C100.23 162.35 92.84 154.92 85.45 147.48 C81.97 143.98 78.49 140.49 75 137 C73.4 135.39 71.8 133.78 70.21 132.17 C68.41 130.36 66.61 128.56 64.81 126.75 C64.36 126.29 64.36 126.29 62.04 123.95 C61.17 123.08 60.29 122.2 59.39 121.3 C59 120.9 59 120.9 56.98 118.87 C55 117 55 117 53 116 C53 115.34 53 114.68 53 114 C52.34 114 51.68 114 51 114 C49.72 112.69 49.72 112.69 48.16 110.79 C44.95 107 41.56 103.48 38.02 100 C37.49 99.46 36.95 98.93 36.4 98.39 C34.16 96.18 31.92 93.97 29.67 91.77 C28.02 90.14 26.36 88.51 24.71 86.87 C24.21 86.39 23.71 85.9 23.2 85.4 C20.6 82.82 18.37 80.21 16.27 77.2 C14 74 14 74 12 73 C12.22 82.83 12.45 92.65 12.68 102.48 C12.79 107.05 12.89 111.61 12.99 116.18 C13.39 134.12 13.83 152.05 14.77 169.97 C14.84 171.42 14.91 172.87 14.98 174.33 C16.22 200.09 16.22 200.09 23 209 C27.7 212.7 32.17 212.43 37.94 212.59 C41.25 213.03 42.65 213.66 45 216 C45.5 218.5 45.5 218.5 45 221 C42.7 223.31 41.31 223.96 38.05 224.37 C36.9 224.36 35.75 224.36 34.57 224.36 C33.26 224.36 31.96 224.36 30.61 224.37 C29.19 224.35 27.76 224.34 26.34 224.33 C24.87 224.33 23.4 224.32 21.93 224.32 C18.85 224.32 15.76 224.3 12.68 224.28 C8.75 224.25 4.83 224.24 0.9 224.24 C-2.87 224.23 -6.64 224.22 -10.41 224.2 C-10.76 224.2 -10.76 224.2 -12.55 224.2 C-32.4 224.13 -32.4 224.13 -37 223 C-39 220 -39 220 -38.75 217.44 C-38 215 -38 215 -36 213 C-32.47 212.48 -28.94 212.17 -25.38 211.86 C-22 211 -22 211 -19.66 208.85 C-10.53 193.19 -13.83 167.57 -13.72 150.03 C-13.7 147.71 -13.68 145.4 -13.66 143.08 C-13.63 138.21 -13.59 133.34 -13.55 128.46 C-13.46 115.91 -13.35 103.36 -13.25 90.81 C-13.24 89.59 -13.23 88.36 -13.21 87.1 C-12.89 49.63 -12.89 49.63 -12.62 31.89 C-12.58 29.61 -12.55 27.33 -12.52 25.05 C-12.48 22.01 -12.43 18.97 -12.38 15.93 C-12.37 15.51 -12.37 15.51 -12.35 13.38 C-12.26 8.91 -11.79 5.18 -10 1 C-6.7 -1.71 -3.97 -0.94 0 0 Z " fill="#f0ede8" transform="translate(1268,1065)"/>
<path d="M0 0 C2.68 2.68 2.25 4.71 2.28 8.35 C2.27 9.22 2.27 10.09 2.27 10.99 C2.27 11.88 2.27 12.78 2.27 13.7 C2.27 15.6 2.27 17.5 2.26 19.39 C2.25 22.29 2.26 25.19 2.27 28.08 C2.27 29.93 2.27 31.77 2.27 33.61 C2.27 34.48 2.27 35.34 2.28 36.23 C2.24 40.55 2.18 44.15 0 48 C-2.62 49.81 -2.62 49.81 -5 51 C-7.36 48.88 -8.5 47.21 -9.46 44.2 C-9.71 43.47 -9.95 42.74 -10.2 41.99 C-10.69 40.47 -11.18 38.94 -11.66 37.42 C-15.07 27.17 -21 21.46 -30.25 16.12 C-40.04 12.12 -55.07 12.3 -64.93 15.96 C-71.93 19.48 -77.84 24.58 -81.31 31.69 C-82.94 39.54 -82.91 47.83 -79 55 C-71.13 65.58 -60.83 72.35 -49.5 78.75 C0.54 107.55 0.54 107.55 10.1 136.3 C15.1 156.11 12.39 175.54 2 193 C-9.98 209.99 -29.23 217.78 -48.98 221.36 C-71.42 225.12 -101.53 225.39 -121 212 C-125.46 207.83 -124.91 201.69 -125.1 196 C-125.17 192.64 -125.19 189.29 -125.19 185.94 C-125.19 184.75 -125.19 183.56 -125.19 182.34 C-125.02 159.04 -125.02 159.04 -121 153 C-115.85 152.34 -115.85 152.34 -113.37 154.25 C-111.74 156.33 -111.42 157.72 -111.01 160.32 C-110.94 160.74 -110.94 160.74 -110.57 162.87 C-110.5 163.31 -110.5 163.31 -110.12 165.56 C-108.2 176.15 -105.41 185.98 -96.55 192.91 C-82.29 202.02 -68.22 203.37 -51.84 199.95 C-42.58 197.65 -36.15 193.29 -31.11 185.2 C-27.04 177.17 -26.56 167.88 -29.12 159.25 C-30.72 155.09 -33.1 151.55 -35.7 147.95 C-37 146 -37 146 -38 143 C-39.31 142.29 -40.65 141.63 -42 141 C-43.73 139.71 -45.43 138.4 -47.12 137.06 C-52.21 133.15 -57.51 129.74 -63 126.44 C-86.68 112.18 -112.62 95.8 -119.94 67.44 C-123.01 51.82 -120.6 37.46 -112.11 24.01 C-103.12 11.21 -91.86 2.98 -77 -2 C-76.6 -2.14 -76.6 -2.14 -74.58 -2.83 C-51.55 -10.27 -22.4 -9.6 0 0 Z " fill="#f0ede8" transform="translate(2169,1071)"/>
<path d="M0 0 C0.82 0 1.64 0 2.49 0 C2.92 -0 2.92 -0 5.1 -0.02 C7.97 -0.04 10.83 -0.04 13.7 -0.04 C15.68 -0.05 17.67 -0.06 19.65 -0.06 C23.82 -0.07 27.98 -0.08 32.15 -0.08 C37.49 -0.08 42.84 -0.1 48.18 -0.14 C52.28 -0.16 56.38 -0.17 60.49 -0.16 C62.46 -0.17 64.43 -0.18 66.4 -0.19 C69.15 -0.21 71.9 -0.2 74.66 -0.19 C75.48 -0.2 76.29 -0.22 77.14 -0.23 C82.64 -0.17 82.64 -0.17 85.17 2.19 C86.14 4.29 86.14 4.29 86.01 6.42 C85.14 8.29 85.14 8.29 82.14 10.29 C80 10.69 77.85 11.02 75.7 11.29 C68.26 12.24 68.26 12.24 65.14 14.29 C61.2 23.43 62.66 36.29 62.5 46.09 C62.49 46.6 62.49 46.6 62.45 49.2 C62.11 67.37 62.09 85.54 62.14 103.72 C62.15 105.02 62.15 106.32 62.16 107.65 C62.19 119.69 62.24 131.73 62.31 143.77 C62.35 150.46 62.37 157.15 62.38 163.83 C62.39 166.33 62.4 168.82 62.42 171.31 C62.52 184.29 62.19 197.08 60.8 209.99 C60.68 211.1 60.56 212.21 60.44 213.35 C59.39 222.1 57.21 229.43 53.14 237.29 C52.66 238.28 52.19 239.27 51.7 240.28 C38.27 266.73 10.92 286.13 -16.85 295.21 C-18.86 295.29 -18.86 295.29 -21.13 294.22 C-22.86 292.29 -22.86 292.29 -23.48 289.38 C-22.86 286.29 -22.86 286.29 -20.37 284.05 C-19.26 283.37 -18.14 282.69 -16.99 281.98 C-15.79 281.2 -14.59 280.42 -13.39 279.63 C-13.09 279.44 -13.09 279.44 -11.58 278.45 C0.61 270.23 8.1 258.29 12.14 244.29 C12.41 243.35 12.69 242.4 12.97 241.42 C17.11 225.39 17.44 208.65 17.4 192.18 C17.4 190.37 17.4 188.56 17.41 186.75 C17.41 181.9 17.41 177.05 17.41 172.2 C17.4 167.1 17.4 162 17.41 156.9 C17.41 148.34 17.41 139.79 17.4 131.24 C17.39 121.37 17.39 111.5 17.4 101.63 C17.41 93.12 17.41 84.61 17.41 76.1 C17.4 71.03 17.4 65.96 17.41 60.89 C17.41 56.14 17.41 51.38 17.4 46.63 C17.4 44.89 17.4 43.15 17.4 41.41 C17.45 21.59 17.45 21.59 13.82 14.86 C9.27 10.64 2.88 10.6 -3 9.86 C-5.86 9.29 -5.86 9.29 -7.86 7.29 C-8.11 4.79 -8.11 4.79 -7.86 2.29 C-5.28 -0.29 -3.52 0.04 0 0 Z " fill="#f0ede8" transform="translate(486.8635711669922,1068.7067260742188)"/>
<path d="M0 0 C5.6 -0.06 11.19 -0.11 16.79 -0.14 C18.72 -0.15 20.65 -0.17 22.58 -0.19 C42.47 -0.42 62.18 1.12 80.94 8.09 C82.06 8.48 83.18 8.88 84.34 9.28 C108.93 18.18 127.95 34.85 139.94 58.09 C140.36 58.85 140.78 59.6 141.21 60.38 C155.03 86.09 154.35 119.32 146.91 146.9 C138.16 175.24 119.2 195.68 93.25 209.47 C92.49 209.87 91.73 210.28 90.95 210.69 C81.1 215.77 71.17 218.72 60.31 220.78 C59.24 220.99 58.18 221.2 57.08 221.42 C46.01 223.58 35.47 224.29 24.19 224.28 C23.84 224.28 23.84 224.28 22.11 224.28 C12.86 224.27 3.7 224 -5.5 222.89 C-18.46 221.34 -31.43 221 -44.46 221.17 C-45.52 221.18 -46.58 221.19 -47.68 221.21 C-52.05 221.26 -56.42 221.32 -60.8 221.41 C-64.04 221.48 -67.28 221.51 -70.53 221.54 C-71.51 221.57 -72.5 221.6 -73.51 221.63 C-81.1 221.66 -81.1 221.66 -84.22 218.56 C-84.83 217.75 -85.44 216.93 -86.06 216.09 C-84.19 211.22 -84.19 211.22 -83.06 210.09 C-80.97 209.72 -78.86 209.39 -76.75 209.09 C-74.52 208.77 -72.29 208.44 -70.06 208.09 C-69.37 208 -68.68 207.9 -67.97 207.8 C-66.06 207.09 -66.06 207.09 -65.04 205.43 C-63.06 199.12 -62.53 193.19 -62.39 186.6 C-62.35 185.48 -62.32 184.35 -62.29 183.2 C-61.92 169.2 -61.9 155.21 -61.9 141.21 C-61.9 138.91 -61.89 136.62 -61.89 134.32 C-61.88 126.27 -61.88 118.22 -61.88 110.18 C-61.88 102.73 -61.87 95.28 -61.85 87.83 C-61.84 81.37 -61.84 74.92 -61.84 68.46 C-61.84 64.63 -61.83 60.8 -61.82 56.97 C-61.81 53.38 -61.81 49.79 -61.82 46.2 C-61.82 44.27 -61.81 42.35 -61.8 40.43 C-61.86 23.66 -61.86 23.66 -64.06 17.09 C-67.94 13.29 -71.52 12.26 -76.75 11.47 C-83.82 10.33 -83.82 10.33 -86.06 8.09 C-86.25 5.03 -86.25 5.03 -86.06 2.09 C-84.21 0.24 -81.14 0.92 -78.66 0.89 C-77.99 0.88 -77.31 0.87 -76.62 0.86 C-74.36 0.82 -72.1 0.8 -69.85 0.77 C-68.25 0.75 -66.66 0.73 -65.07 0.71 C-60.79 0.66 -56.51 0.61 -52.23 0.56 C-49.57 0.53 -46.92 0.5 -44.26 0.47 C-34.6 0.36 -24.94 0.25 -15.28 0.16 C-10.18 0.11 -5.09 0.06 0 0 Z M-16.06 23.09 C-17.13 32.28 -17.21 41.54 -17.21 50.79 C-17.21 52.08 -17.22 53.37 -17.22 54.7 C-17.23 58.19 -17.23 61.68 -17.23 65.18 C-17.23 67.37 -17.24 69.57 -17.24 71.76 C-17.25 79.45 -17.25 87.15 -17.25 94.84 C-17.25 101.95 -17.26 109.07 -17.28 116.18 C-17.29 122.34 -17.29 128.49 -17.29 134.65 C-17.29 138.3 -17.3 141.96 -17.31 145.61 C-17.38 171.68 -17.38 171.68 -16.3 182.64 C-16.24 183.33 -16.18 184.02 -16.12 184.73 C-15.42 190.48 -12.9 194.25 -8.88 198.28 C1 204.64 12.84 204.29 24.19 204.28 C25.29 204.28 26.4 204.28 27.54 204.28 C35.19 204.22 42.46 203.81 49.94 202.09 C51.21 201.8 52.48 201.51 53.79 201.2 C70.08 197.05 82.51 188.35 92.05 174.43 C98.38 163.2 102.97 150.99 103.94 138.09 C104.04 136.97 104.15 135.84 104.26 134.68 C107.09 101.5 101.66 71.9 80.13 45.91 C74.94 40.31 68.3 36.23 61.94 32.09 C61.56 31.84 61.56 31.84 59.66 30.58 C44.82 21.53 26.95 19.74 10 19.83 C7.54 19.84 5.09 19.83 2.63 19.82 C1.06 19.82 -0.51 19.82 -2.09 19.83 C-2.45 19.82 -2.45 19.82 -4.29 19.81 C-8.5 19.85 -12.91 19.94 -16.06 23.09 Z " fill="#f0ede8" transform="translate(728.06494140625,1067.90869140625)"/>
<path d="M0 0 C0.04 2 0.04 4 0 6 C-5.35 8.55 -10.51 9.85 -16.33 10.96 C-19.79 12.31 -20.51 13.65 -22 17 C-27.48 40.47 -24.19 68.35 -24.19 92.31 C-24.19 96.78 -24.19 101.26 -24.21 105.74 C-24.27 128.73 -24.18 151.7 -23.18 174.68 C-23.14 175.56 -23.11 176.44 -23.07 177.35 C-22.24 197.68 -22.24 197.68 -17.12 204.5 C-11.89 208.2 -4.55 207.29 1.6 207.52 C5 208 5 208 6.93 209.38 C8.52 211.78 8.56 213.2 8 216 C3.64 219.6 -0.48 219.42 -5.86 219.37 C-6.3 219.37 -6.3 219.37 -8.53 219.38 C-11.44 219.39 -14.35 219.38 -17.25 219.36 C-19.28 219.36 -21.3 219.36 -23.32 219.36 C-27.56 219.36 -31.8 219.35 -36.04 219.34 C-41.47 219.31 -46.9 219.31 -52.34 219.32 C-56.51 219.32 -60.69 219.32 -64.87 219.31 C-66.87 219.3 -68.87 219.3 -70.88 219.3 C-73.68 219.3 -76.47 219.29 -79.27 219.27 C-80.1 219.28 -80.93 219.28 -81.78 219.28 C-88.96 219.22 -88.96 219.22 -92 217 C-93.11 214.62 -93.13 213.46 -92.4 210.93 C-91 209 -91 209 -88.14 208.28 C-87.57 208.22 -87.57 208.22 -84.69 207.94 C-80.03 207.46 -76.74 206.92 -73 204 C-66.91 193.08 -68.85 176.81 -68.85 164.76 C-68.85 163.29 -68.85 161.82 -68.84 160.35 C-68.84 156.41 -68.83 152.46 -68.83 148.52 C-68.83 146.04 -68.83 143.57 -68.83 141.1 C-68.82 132.45 -68.81 123.8 -68.81 115.14 C-68.82 107.12 -68.8 99.09 -68.79 91.06 C-68.78 84.13 -68.77 77.21 -68.77 70.28 C-68.77 66.16 -68.77 62.03 -68.76 57.91 C-68.75 54.03 -68.75 50.16 -68.76 46.28 C-68.76 44.87 -68.75 43.46 -68.75 42.04 C-68.66 19.51 -68.66 19.51 -73.14 12.79 C-76.57 10.64 -79.74 9.9 -83.69 9.38 C-86.18 9.02 -88.54 8.58 -91 8 C-93.15 4.78 -93.29 3.72 -93 0 C-91.01 -1.99 -87.02 -1.2 -84.29 -1.22 C-83.48 -1.23 -82.67 -1.24 -81.84 -1.26 C-79.15 -1.29 -76.46 -1.32 -73.77 -1.35 C-71.91 -1.37 -70.04 -1.4 -68.18 -1.42 C-64.26 -1.47 -60.34 -1.52 -56.42 -1.56 C-51.41 -1.61 -46.39 -1.68 -41.38 -1.74 C-37.52 -1.79 -33.67 -1.84 -29.81 -1.88 C-27.96 -1.9 -26.11 -1.93 -24.27 -1.95 C-21.67 -1.99 -19.08 -2.01 -16.49 -2.04 C-16.11 -2.04 -16.11 -2.04 -14.19 -2.07 C-2.17 -2.17 -2.17 -2.17 0 0 Z " fill="#f0ede8" transform="translate(1157,1070)"/>
<path d="M0 0 C3.04 -0.3 5.87 -0.4 8.92 -0.37 C9.84 -0.38 10.76 -0.38 11.72 -0.38 C14.78 -0.39 17.84 -0.38 20.91 -0.36 C23.03 -0.36 25.15 -0.36 27.27 -0.36 C31.73 -0.36 36.18 -0.35 40.63 -0.34 C46.35 -0.31 52.06 -0.31 57.78 -0.32 C62.16 -0.32 66.55 -0.32 70.93 -0.31 C73.04 -0.3 75.15 -0.3 77.26 -0.3 C80.2 -0.3 83.14 -0.29 86.08 -0.27 C86.96 -0.28 87.84 -0.28 88.74 -0.28 C94.77 -0.23 94.77 -0.23 97 2 C97.25 5 97.25 5 97 8 C93.99 11.01 90.84 10.39 86.73 10.56 C83.62 11.06 82.21 11.78 80 14 C78.97 20.06 80.4 24.61 82.6 30.24 C82.73 30.59 82.73 30.59 83.41 32.35 C86.52 40.44 89.79 48.47 93.06 56.5 C93.72 58.12 94.38 59.74 95.04 61.36 C97.62 67.7 100.2 74.04 102.78 80.37 C110.32 98.86 117.75 117.39 125 136 C125.38 136.97 125.76 137.95 126.15 138.95 C128.11 143.97 130.06 148.98 132 154 C135.06 152.47 135.56 149.55 136.75 146.5 C137.38 144.93 138.01 143.36 138.64 141.79 C139.01 140.88 139.38 139.98 139.75 139.04 C141.96 133.65 144.26 128.3 146.55 122.95 C153.95 105.62 161.11 88.2 168.24 70.76 C170.42 65.41 172.61 60.07 174.81 54.73 C174.95 54.38 174.95 54.38 175.67 52.64 C177.29 48.7 178.94 44.79 180.62 40.88 C182.5 36.35 184.24 31.8 185.88 27.19 C186.09 26.59 186.09 26.59 187.18 23.54 C188.1 19.57 188.09 16.93 187 13 C183.49 10.11 178.82 10.62 174.46 10.44 C173.65 10.3 172.84 10.15 172 10 C169.86 6.79 169.52 5.72 170 2 C173.74 -0.49 175.66 -0.24 180.13 -0.23 C180.86 -0.23 181.58 -0.23 182.32 -0.23 C184.71 -0.23 187.09 -0.21 189.48 -0.2 C191.14 -0.19 192.79 -0.19 194.44 -0.19 C198.8 -0.18 203.15 -0.16 207.51 -0.14 C211.95 -0.12 216.4 -0.11 220.84 -0.1 C229.56 -0.08 238.28 -0.04 247 0 C247.12 3.37 247.12 3.37 247 7 C243.95 10.05 239.9 10.05 235.76 10.68 C230.93 11.52 227.84 12.99 224 16 C222.14 18.89 222.14 18.89 220.58 22.25 C220.29 22.86 220.01 23.48 219.71 24.1 C218.79 26.06 217.89 28.03 217 30 C216.4 31.29 215.8 32.58 215.2 33.86 C213.34 37.88 211.51 41.9 209.69 45.94 C209.52 46.3 209.52 46.3 208.7 48.13 C203.53 59.53 198.48 70.97 193.53 82.47 C190.46 89.56 187.37 96.64 184.28 103.72 C183.15 106.32 182.02 108.92 180.89 111.51 C180.18 113.14 179.47 114.77 178.76 116.4 C178.44 117.13 178.12 117.87 177.79 118.62 C175.85 123.07 173.89 127.52 171.91 131.95 C169.88 136.51 167.88 141.07 165.88 145.62 C165.4 146.71 164.92 147.79 164.43 148.9 C162.01 154.41 159.59 159.93 157.2 165.46 C156.76 166.49 156.31 167.52 155.85 168.57 C155.02 170.51 154.18 172.45 153.35 174.39 C151.63 178.37 149.87 182.31 147.89 186.18 C146 189.9 144.57 193.69 143.19 197.62 C141.18 203.12 139 208.48 136.44 213.75 C135.9 214.86 135.36 215.97 134.81 217.11 C132.43 220.91 130 223.31 125.72 224.79 C124.99 224.88 124.25 224.97 123.5 225.06 C122.77 225.18 122.04 225.29 121.28 225.41 C117.62 224.75 116.31 222.85 114 220 C112.54 217.29 111.42 214.49 110.31 211.62 C109.62 209.92 108.93 208.22 108.24 206.52 C107.88 205.62 107.52 204.73 107.15 203.8 C105.16 198.94 103.04 194.13 100.94 189.31 C100.51 188.33 100.08 187.35 99.64 186.34 C98.43 183.56 97.21 180.78 96 178 C95.4 176.62 94.8 175.24 94.2 173.86 C93.65 172.62 93.11 171.37 92.56 170.12 C92.3 169.52 92.03 168.91 91.76 168.28 C89.96 164.18 88.15 160.08 86.34 155.99 C78.01 137.17 78.01 137.17 75.06 129.62 C71.92 121.62 68.39 113.79 64.88 105.94 C61.03 97.34 57.24 88.71 53.5 80.06 C53.23 79.44 52.96 78.82 52.68 78.18 C49.7 71.29 46.74 64.4 43.83 57.48 C34.97 36.45 34.97 36.45 30.19 27.12 C29.86 26.47 29.54 25.82 29.2 25.15 C25.9 18.95 20.69 14.14 14.11 11.59 C9.49 10.3 4.74 9.66 0 9 C-1.12 6.19 -1.12 6.19 -2 3 C-1.34 2.01 -0.68 1.02 0 0 Z " fill="#f0ede8" transform="translate(1518,1069)"/>
<path d="M0 0 C2 2 2 2 2.17 5.37 C2.14 6.82 2.1 8.27 2.05 9.72 C2.04 10.11 2.04 10.11 1.99 12.06 C1.94 13.7 1.89 15.34 1.83 16.98 C1.75 19.46 1.69 21.94 1.63 24.42 C1.4 32.49 0.95 40.12 -1 48 C-3.36 48.6 -3.36 48.6 -6 49 C-9.65 46.38 -10.57 43.87 -11.44 39.56 C-12.65 34.7 -13.82 32.04 -18 29 C-28.74 23.1 -42.7 24.71 -54.62 24.44 C-56.41 24.39 -58.2 24.35 -59.98 24.31 C-64.32 24.2 -68.66 24.1 -73 24 C-74.14 27.41 -74.16 30.08 -74.21 33.67 C-74.22 34.35 -74.23 35.02 -74.24 35.72 C-74.27 37.94 -74.29 40.16 -74.32 42.39 C-74.34 43.93 -74.36 45.47 -74.38 47.01 C-74.43 51.07 -74.48 55.13 -74.53 59.19 C-74.58 63.33 -74.64 67.48 -74.69 71.62 C-74.8 79.75 -74.9 87.87 -75 96 C-61.32 96.03 -61.32 96.03 -55.1 95.82 C-54.52 95.8 -54.52 95.8 -51.61 95.7 C-46.79 95.51 -41.98 95.32 -37.16 95.12 C-34.58 95.02 -32 94.95 -29.43 94.89 C-22.65 94.63 -18.03 93.46 -12.13 90.08 C-9.35 88.67 -7.07 88.6 -4 89 C-2.67 93.83 -3.1 98.38 -3.45 103.32 C-3.51 104.21 -3.57 105.1 -3.64 106.02 C-3.77 107.91 -3.9 109.79 -4.04 111.67 C-4.25 114.56 -4.44 117.44 -4.62 120.32 C-4.75 122.15 -4.88 123.98 -5.02 125.82 C-5.04 126.25 -5.04 126.25 -5.18 128.42 C-5.75 135.78 -5.75 135.78 -9 139 C-11.38 138.69 -11.38 138.69 -14 138 C-16.12 134.82 -16.36 133.27 -16.81 129.56 C-17.46 125.66 -17.68 124.34 -20.44 121.38 C-24.66 119.11 -27.99 118.83 -32.73 118.68 C-33.06 118.67 -33.06 118.67 -34.75 118.62 C-36.18 118.58 -37.6 118.54 -39.02 118.5 C-41.13 118.44 -43.25 118.37 -45.37 118.31 C-54.91 118.02 -64.45 117.98 -74 118 C-74.07 127.27 -74.12 136.53 -74.16 145.8 C-74.17 150.1 -74.19 154.41 -74.23 158.71 C-74.26 162.87 -74.28 167.02 -74.28 171.18 C-74.29 172.76 -74.3 174.34 -74.32 175.93 C-74.34 178.15 -74.34 180.37 -74.34 182.6 C-74.35 183.86 -74.35 185.12 -74.36 186.42 C-73.88 191.22 -72.63 195.3 -69.21 198.86 C-60.37 203.41 -47.32 202.25 -37.68 202.35 C-35.73 202.37 -33.78 202.41 -31.82 202.45 C-23.71 202.47 -17.41 201.26 -10 198 C-9.01 197.67 -8.02 197.34 -7 197 C-5.93 195.16 -5.93 195.16 -5 193 C-4.85 192.7 -4.85 192.7 -4.07 191.21 C-1.7 186.62 0.18 181.99 1.88 177.1 C3.22 174.59 4.37 174 7 173 C9.5 174.44 9.5 174.44 12 177 C12.43 184.04 11.57 190.9 10.69 197.88 C10.57 198.89 10.45 199.9 10.33 200.94 C8.04 219.28 8.04 219.28 3.91 222.76 C0.18 224.35 -3.27 224.61 -7.27 224.75 C-8.12 224.78 -8.98 224.82 -9.87 224.85 C-22.33 225.24 -34.81 224.66 -47.26 224.22 C-54.9 223.95 -62.54 223.71 -70.18 223.47 C-70.94 223.45 -71.7 223.43 -72.48 223.4 C-88.93 222.91 -105.37 222.86 -121.82 223.07 C-122.28 223.08 -122.28 223.08 -124.61 223.1 C-126.29 223.12 -127.97 223.14 -129.65 223.18 C-134.49 223.22 -138.42 222.6 -143 221 C-143.33 220.67 -143.66 220.34 -144 220 C-143.28 213.28 -143.28 213.28 -142 212 C-139.71 211.63 -137.42 211.3 -135.12 211 C-128.32 210.11 -128.32 210.11 -125 209 C-118.2 195.41 -120.69 175.67 -120.44 160.94 C-120.43 160.34 -120.43 160.34 -120.37 157.34 C-120.04 138.27 -119.81 119.22 -119.97 100.15 C-120 97.13 -120.02 94.11 -120.04 91.09 C-120.09 83.41 -120.16 75.74 -120.24 68.06 C-120.28 64.13 -120.32 60.19 -120.35 56.26 C-120.37 52.51 -120.41 48.77 -120.46 45.03 C-120.48 43.63 -120.49 42.24 -120.5 40.85 C-120.54 32.72 -120.67 24.55 -124 17 C-129.04 13.38 -135.24 13.22 -141.3 12.43 C-144 12 -144 12 -145 11 C-145.12 7.5 -145.12 7.5 -145 4 C-143.37 2.37 -141.52 2.86 -139.27 2.86 C-138.24 2.85 -137.22 2.84 -136.16 2.83 C-135.59 2.83 -135.59 2.83 -132.73 2.83 C-131.54 2.82 -130.35 2.81 -129.13 2.81 C-125.86 2.79 -122.59 2.77 -119.32 2.76 C-115.89 2.75 -112.46 2.73 -109.03 2.71 C-97.35 2.63 -85.66 2.57 -73.98 2.52 C-67.53 2.49 -61.08 2.46 -54.64 2.42 C-51.23 2.39 -47.82 2.38 -44.41 2.37 C-40.59 2.35 -36.78 2.33 -32.96 2.3 C-32.4 2.3 -32.4 2.3 -29.6 2.3 C-22.67 2.24 -16.03 1.55 -9.19 0.43 C-6.05 0.01 -3.16 -0.22 0 0 Z " fill="#f0ede8" transform="translate(1953,1066)"/>
</svg>
